<svg width="120" height="34" viewBox="0 0 120 34" fill="none" xmlns="http://www.w3.org/2000/svg">
<path d="M31.8018 13.71C31.333 13.71 30.8984 13.6758 30.498 13.6074C29.9707 13.5195 29.5166 13.3828 29.1357 13.1973C28.1299 12.709 27.627 11.9033 27.627 10.7803C27.627 9.65723 28.1299 8.85156 29.1357 8.36328C29.5166 8.17773 29.9707 8.04102 30.498 7.95312C30.8984 7.88477 31.333 7.85059 31.8018 7.85059C32.251 7.85059 32.6758 7.88477 33.0762 7.95312C33.584 8.03125 34.0283 8.1582 34.4092 8.33398C35.3955 8.80273 35.9131 9.56934 35.9619 10.6338L38.9209 10.3848C38.8232 8.70508 38.1348 7.37207 36.8555 6.38574C35.5664 5.38965 33.8818 4.8916 31.8018 4.8916C29.6338 4.8916 27.9004 5.42383 26.6016 6.48828C25.3125 7.5625 24.668 8.99316 24.668 10.7803C24.668 12.5674 25.3125 13.998 26.6016 15.0723C27.9004 16.1465 29.6338 16.6836 31.8018 16.6836C32.2998 16.6836 32.7686 16.7178 33.208 16.7861C33.7646 16.874 34.2529 17.0205 34.6729 17.2256C35.7471 17.7627 36.2842 18.6416 36.2842 19.8623C36.2842 21.083 35.7471 21.957 34.6729 22.4844C34.2529 22.6895 33.7646 22.8359 33.208 22.9238C32.7686 22.9922 32.2998 23.0264 31.8018 23.0264C31.2939 23.0264 30.8252 22.9922 30.3955 22.9238C29.8291 22.8359 29.3408 22.6895 28.9307 22.4844C27.8467 21.957 27.3047 21.083 27.3047 19.8623H27.2168L24.3457 20.082C24.4043 21.918 25.0977 23.3633 26.4258 24.418C27.7539 25.4727 29.5459 26 31.8018 26C34.0967 26 35.9131 25.4482 37.251 24.3447C38.5889 23.251 39.2578 21.7568 39.2578 19.8623C39.2578 17.958 38.5889 16.459 37.251 15.3652C35.9131 14.2617 34.0967 13.71 31.8018 13.71ZM42.3633 20.3896V21.5029C42.3633 22.8408 42.7539 23.9248 43.5352 24.7549C44.3164 25.585 45.3467 26 46.626 26H47.4023V23.0264H46.626C46.2256 23.0264 45.9277 22.9434 45.7324 22.7773C45.4688 22.5332 45.3369 22.1084 45.3369 21.5029V20.3896V14.8379L47.417 14.5889V11.6152L45.3369 11.8643V7.05957H42.3633V11.8643L40.2832 11.6152V14.5889L42.3633 14.8379V20.3896ZM52.749 18.8076C52.749 17.626 52.9883 16.6836 53.4668 15.9805C54.0918 15.0625 55.1025 14.6035 56.499 14.6035V11.6299C55.9912 11.6299 55.5029 11.6738 55.0342 11.7617L54.8877 11.791C54.0576 11.9863 53.3447 12.333 52.749 12.8311V11.6445H49.7754V26H52.749V18.8076ZM63.7061 23.0264C62.2998 23.0264 61.2842 22.5674 60.6592 21.6494C60.1904 20.9365 59.9561 19.9893 59.9561 18.8076C59.9561 17.626 60.1904 16.6787 60.6592 15.9658C61.2842 15.0479 62.2998 14.5889 63.7061 14.5889C65.1123 14.5889 66.1279 15.0479 66.7529 15.9658C67.2314 16.6787 67.4707 17.626 67.4707 18.8076C67.4707 19.9893 67.2314 20.9365 66.7529 21.6494C66.1279 22.5674 65.1123 23.0264 63.7061 23.0264ZM63.7061 11.6152C61.665 11.6152 60.0342 12.2695 58.8135 13.5781C57.5928 14.877 56.9824 16.6201 56.9824 18.8076C56.9824 20.9951 57.5928 22.7383 58.8135 24.0371C60.0342 25.3457 61.665 26 63.7061 26C65.7471 26 67.3779 25.3457 68.5986 24.0371C69.8193 22.7383 70.4297 20.9951 70.4297 18.8076C70.4297 16.6201 69.8193 14.877 68.5986 13.5781C67.3779 12.2695 65.7471 11.6152 63.7061 11.6152ZM72.7734 4.8916V26H75.7471V4.8916H72.7734ZM79.5996 4.8916V26H82.5732V4.8916H79.5996ZM94.0137 22.7334C93.5547 22.7334 93.1689 22.8945 92.8564 23.2168C92.5342 23.5293 92.373 23.9102 92.373 24.3594C92.373 24.8184 92.5342 25.2041 92.8564 25.5166C93.1689 25.8389 93.5547 26 94.0137 26C94.4629 26 94.8438 25.8389 95.1562 25.5166C95.4785 25.2041 95.6396 24.8184 95.6396 24.3594C95.6396 23.9102 95.4785 23.5293 95.1562 23.2168C94.8438 22.8945 94.4629 22.7334 94.0137 22.7334Z" fill="#6C63FF"/>
<path d="M94 4C90.6829 4 88 6.68286 88 10C88 14.5 94 21.1429 94 21.1429C94 21.1429 100 14.5 100 10C100 6.68286 97.3171 4 94 4ZM94 12.1429C92.8171 12.1429 91.8571 11.1829 91.8571 10C91.8571 8.81714 92.8171 7.85714 94 7.85714C95.1829 7.85714 96.1429 8.81714 96.1429 10C96.1429 11.1829 95.1829 12.1429 94 12.1429Z" fill="#6C63FF"/>
</svg>
