<svg width="79" height="34" viewBox="0 0 79 34" fill="none" xmlns="http://www.w3.org/2000/svg">
<path d="M10.3018 13.71C9.83301 13.71 9.39844 13.6758 8.99805 13.6074C8.4707 13.5195 8.0166 13.3828 7.63574 13.1973C6.62988 12.709 6.12695 11.9033 6.12695 10.7803C6.12695 9.65723 6.62988 8.85156 7.63574 8.36328C8.0166 8.17773 8.4707 8.04102 8.99805 7.95312C9.39844 7.88477 9.83301 7.85059 10.3018 7.85059C10.751 7.85059 11.1758 7.88477 11.5762 7.95312C12.084 8.03125 12.5283 8.1582 12.9092 8.33398C13.8955 8.80273 14.4131 9.56934 14.4619 10.6338L17.4209 10.3848C17.3232 8.70508 16.6348 7.37207 15.3555 6.38574C14.0664 5.38965 12.3818 4.8916 10.3018 4.8916C8.13379 4.8916 6.40039 5.42383 5.10156 6.48828C3.8125 7.5625 3.16797 8.99316 3.16797 10.7803C3.16797 12.5674 3.8125 13.998 5.10156 15.0723C6.40039 16.1465 8.13379 16.6836 10.3018 16.6836C10.7998 16.6836 11.2686 16.7178 11.708 16.7861C12.2646 16.874 12.7529 17.0205 13.1729 17.2256C14.2471 17.7627 14.7842 18.6416 14.7842 19.8623C14.7842 21.083 14.2471 21.957 13.1729 22.4844C12.7529 22.6895 12.2646 22.8359 11.708 22.9238C11.2686 22.9922 10.7998 23.0264 10.3018 23.0264C9.79395 23.0264 9.3252 22.9922 8.89551 22.9238C8.3291 22.8359 7.84082 22.6895 7.43066 22.4844C6.34668 21.957 5.80469 21.083 5.80469 19.8623H5.7168L2.8457 20.082C2.9043 21.918 3.59766 23.3633 4.92578 24.418C6.25391 25.4727 8.0459 26 10.3018 26C12.5967 26 14.4131 25.4482 15.751 24.3447C17.0889 23.251 17.7578 21.7568 17.7578 19.8623C17.7578 17.958 17.0889 16.459 15.751 15.3652C14.4131 14.2617 12.5967 13.71 10.3018 13.71ZM20.8633 20.3896V21.5029C20.8633 22.8408 21.2539 23.9248 22.0352 24.7549C22.8164 25.585 23.8467 26 25.126 26H25.9023V23.0264H25.126C24.7256 23.0264 24.4277 22.9434 24.2324 22.7773C23.9688 22.5332 23.8369 22.1084 23.8369 21.5029V20.3896V14.8379L25.917 14.5889V11.6152L23.8369 11.8643V7.05957H20.8633V11.8643L18.7832 11.6152V14.5889L20.8633 14.8379V20.3896ZM31.249 18.8076C31.249 17.626 31.4883 16.6836 31.9668 15.9805C32.5918 15.0625 33.6025 14.6035 34.999 14.6035V11.6299C34.4912 11.6299 34.0029 11.6738 33.5342 11.7617L33.3877 11.791C32.5576 11.9863 31.8447 12.333 31.249 12.8311V11.6445H28.2754V26H31.249V18.8076ZM42.2061 23.0264C40.7998 23.0264 39.7842 22.5674 39.1592 21.6494C38.6904 20.9365 38.4561 19.9893 38.4561 18.8076C38.4561 17.626 38.6904 16.6787 39.1592 15.9658C39.7842 15.0479 40.7998 14.5889 42.2061 14.5889C43.6123 14.5889 44.6279 15.0479 45.2529 15.9658C45.7314 16.6787 45.9707 17.626 45.9707 18.8076C45.9707 19.9893 45.7314 20.9365 45.2529 21.6494C44.6279 22.5674 43.6123 23.0264 42.2061 23.0264ZM42.2061 11.6152C40.165 11.6152 38.5342 12.2695 37.3135 13.5781C36.0928 14.877 35.4824 16.6201 35.4824 18.8076C35.4824 20.9951 36.0928 22.7383 37.3135 24.0371C38.5342 25.3457 40.165 26 42.2061 26C44.2471 26 45.8779 25.3457 47.0986 24.0371C48.3193 22.7383 48.9297 20.9951 48.9297 18.8076C48.9297 16.6201 48.3193 14.877 47.0986 13.5781C45.8779 12.2695 44.2471 11.6152 42.2061 11.6152ZM51.2734 4.8916V26H54.2471V4.8916H51.2734ZM58.0996 4.8916V26H61.0732V4.8916H58.0996ZM72.5137 22.7334C72.0547 22.7334 71.6689 22.8945 71.3564 23.2168C71.0342 23.5293 70.873 23.9102 70.873 24.3594C70.873 24.8184 71.0342 25.2041 71.3564 25.5166C71.6689 25.8389 72.0547 26 72.5137 26C72.9629 26 73.3438 25.8389 73.6562 25.5166C73.9785 25.2041 74.1396 24.8184 74.1396 24.3594C74.1396 23.9102 73.9785 23.5293 73.6562 23.2168C73.3438 22.8945 72.9629 22.7334 72.5137 22.7334Z" fill="#6C63FF"/>
<path d="M72.55 4.41676C69.4816 4.41676 67 7.01204 67 10.2209C67 14.574 72.55 21 72.55 21C72.55 21 78.1 14.574 78.1 10.2209C78.1 7.01204 75.6184 4.41676 72.55 4.41676ZM72.55 12.2938C71.4559 12.2938 70.5679 11.3651 70.5679 10.2209C70.5679 9.07665 71.4559 8.14799 72.55 8.14799C73.6441 8.14799 74.5321 9.07665 74.5321 10.2209C74.5321 11.3651 73.6441 12.2938 72.55 12.2938Z" fill="#6C63FF"/>
</svg>
