<svg width="350" height="249" viewBox="0 0 350 249" fill="none" xmlns="http://www.w3.org/2000/svg">
<g clip-path="url(#clip0)">
<path opacity="0.1" d="M293.987 136.645C284.215 149.256 288.012 167.679 294.221 182.434C296.3 187.374 298.652 192.6 297.775 197.898C296.702 204.376 291.006 209.113 285.026 211.624C274.124 216.2 261.078 215.109 251.06 208.784C242.403 203.318 236.204 194.428 227.399 189.21C212.665 180.479 193.91 183.776 177.91 189.791C166.591 194.046 154.215 199.58 142.968 195.133C135.053 192.004 129.583 184.388 126.602 176.314C125.163 172.417 124.118 168.198 121.37 165.108C119.736 163.271 117.604 161.968 115.42 160.868C95.4744 150.83 70.2836 156.206 50.9108 145.072C37.8271 137.553 29.451 123.369 25.7423 108.58C22.0336 93.7898 22.4656 78.2816 23.4072 63.0502C24.0764 52.2258 25.277 40.6698 32.0908 32.3156C39.2988 23.478 51.6694 20.1919 62.8507 21.8716C74.0321 23.5513 84.167 29.5382 93.0833 36.5897C104.227 45.4025 114.561 56.3766 128.243 59.9465C137.56 62.3777 147.361 61.0479 156.971 60.5873C173.036 59.8175 189.108 61.5295 205.084 63.4043C220.379 65.199 235.784 67.1742 250.354 72.2245C260.665 75.7984 268.932 82.2859 278.668 86.8182C285.015 89.7725 291.935 90.5883 297.944 94.3511C305.346 98.9864 312.132 107.049 310.236 116.483C308.433 125.453 299.174 129.952 293.987 136.645Z" fill="#6C63FF"/>
<path opacity="0.1" d="M7.28546 167.652C7.28546 167.652 63.4796 152.691 136.256 190.718C209.032 228.744 288.563 160.795 287.028 150.509C285.493 140.224 339.844 150.509 339.844 150.509V242.458H7.28546V167.652Z" fill="#6C63FF"/>
<path d="M46.4005 31.0042C54.8352 31.0042 61.6728 24.0637 61.6728 15.5021C61.6728 6.94053 54.8352 0 46.4005 0C37.9658 0 31.1281 6.94053 31.1281 15.5021C31.1281 24.0637 37.9658 31.0042 46.4005 31.0042Z" fill="#FFDF9C"/>
<path d="M153.524 79.211L151.037 94.9168C151.037 94.9168 147.927 105.283 148.238 110.308C148.549 115.334 148.238 122.245 148.238 122.245C148.238 122.245 140.776 136.066 146.994 141.72C153.213 147.374 155.079 123.815 155.079 123.815C155.079 123.815 154.146 113.764 156.323 108.424C158.499 103.084 158.81 91.4615 158.81 91.4615L153.524 79.211Z" fill="#FFCDD3"/>
<path opacity="0.05" d="M153.524 79.211L151.037 94.9168C151.037 94.9168 147.927 105.283 148.238 110.308C148.549 115.334 148.238 122.245 148.238 122.245C148.238 122.245 140.776 136.066 146.994 141.72C153.213 147.374 155.079 123.815 155.079 123.815C155.079 123.815 154.146 113.764 156.323 108.424C158.499 103.084 158.81 91.4615 158.81 91.4615L153.524 79.211Z" fill="black"/>
<path d="M189.956 133.219L194.257 149.573L198.299 168.734C198.299 168.734 200.476 172.817 198.299 181.299L205.451 204.857C205.451 204.857 209.493 219.935 211.98 220.249C214.468 220.563 209.493 232.185 209.493 232.185L202.652 228.102C202.652 228.102 200.787 218.678 198.299 216.48C195.812 214.281 187.727 192.293 187.727 192.293L185.24 176.901C185.24 176.901 177.466 155.855 170.626 150.829C163.785 145.804 161.609 137.637 161.609 137.637L189.956 133.219Z" fill="#FFCDD3"/>
<path opacity="0.05" d="M161.609 137.637C161.609 137.637 163.785 145.804 170.626 150.829C177.466 155.855 185.24 176.901 185.24 176.901L187.727 192.293C187.727 192.293 195.812 214.281 198.299 216.48C200.124 218.094 201.617 223.601 202.279 226.415C202.522 227.436 202.652 228.102 202.652 228.102L209.493 232.185C209.493 232.185 214.468 220.563 211.98 220.249C211.595 220.202 211.172 219.797 210.73 219.15C208.336 215.625 205.451 204.857 205.451 204.857L198.299 181.299C200.476 172.817 198.299 168.734 198.299 168.734L194.257 149.573L189.957 133.22L161.609 137.637Z" fill="black"/>
<path d="M121.808 219.307L124.296 225.275L135.49 224.018C135.145 222.397 134.953 220.745 134.918 219.087C134.818 215.522 135.359 210.709 138.288 207.056C143.574 200.46 151.658 184.126 151.658 184.126C151.658 184.126 159.743 175.33 161.608 171.875L177.174 145.499L176.689 143.134L180.887 139.207H154.768L148.549 163.708L143.574 173.76C143.574 173.76 133.002 182.869 128.96 202.03C128.96 202.03 124.927 214.796 122.359 218.606C122.198 218.857 122.014 219.092 121.808 219.307Z" fill="#FFCDD3"/>
<path opacity="0.1" d="M202.279 226.415C202.522 227.436 202.652 228.102 202.652 228.102L209.493 232.185C209.493 232.185 214.468 220.563 211.98 220.249C211.595 220.202 211.172 219.797 210.73 219.15C210.408 219.345 210.156 219.641 210.012 219.994C209.869 220.346 209.841 220.737 209.934 221.107C210.032 221.576 210.198 222.028 210.426 222.448C211.359 224.018 207.316 226.531 207.316 226.531C205.954 228.3 203.744 227.367 202.279 226.415Z" fill="black"/>
<path d="M210.245 221.734C209.819 219.923 212.061 218.708 213.321 220.068C213.642 220.408 213.922 220.785 214.157 221.191C215.401 223.39 224.729 225.275 226.594 224.647C228.46 224.018 234.99 223.39 233.435 228.102C231.88 232.814 203.896 239.724 203.896 239.724C203.896 239.724 200.787 235.327 201.098 232.185C201.278 230.095 201.278 227.993 201.098 225.903C201.098 225.903 205.451 229.987 207.627 227.16C207.627 227.16 211.669 224.647 210.737 223.076C210.508 222.656 210.343 222.204 210.245 221.734Z" fill="#DCE6F2"/>
<path opacity="0.1" d="M121.808 219.307L124.296 225.275L135.49 224.018C135.145 222.397 134.953 220.745 134.918 219.087C134.807 218.862 134.643 218.667 134.442 218.52C134.241 218.373 134.008 218.278 133.762 218.242C133.517 218.207 133.267 218.232 133.033 218.316C132.799 218.401 132.589 218.541 132.421 218.726C131.842 219.354 131.258 220.017 130.826 220.563C129.582 222.134 125.54 221.191 125.54 221.191C124.492 221.543 123.248 220.017 122.359 218.606C122.198 218.857 122.014 219.092 121.808 219.307Z" fill="black"/>
<path d="M132.109 219.354C132.294 219.15 132.531 219 132.793 218.92C133.055 218.84 133.334 218.833 133.6 218.899C133.866 218.966 134.109 219.104 134.304 219.298C134.5 219.493 134.641 219.737 134.711 220.006C135.277 222.239 136.518 225.125 139.221 226.217C143.885 228.102 150.415 231.243 148.238 234.07C146.062 236.897 138.599 239.41 132.069 237.211C125.54 235.012 116.212 229.672 116.212 229.672L120.876 217.108C120.876 217.108 123.363 222.448 125.229 221.82C125.229 221.82 129.271 222.762 130.515 221.191C130.948 220.644 131.532 219.983 132.109 219.354Z" fill="#DCE6F2"/>
<path d="M174.357 42.7736C174.357 42.7736 166.894 53.1394 168.76 60.3641C170.626 67.5887 153.835 55.6523 153.835 55.6523C153.835 55.6523 162.541 47.7994 160.987 34.9207L174.357 42.7736Z" fill="#FFCDD3"/>
<path d="M149.793 141.092C162.23 148.631 177.155 145.489 177.155 145.489L176.844 143.291C177.062 143.313 177.28 143.335 177.491 143.353C189.378 144.415 192.08 140.778 192.08 140.778C190.221 135.497 188.763 124.302 187.855 115.648C187.724 114.405 187.606 113.214 187.497 112.099C187.252 109.577 187.068 107.453 186.95 106.018C186.847 104.755 186.794 104.026 186.794 104.026L185.551 94.6027C185.551 94.6027 182.13 83.2945 183.685 75.7557C185.009 69.3349 180.695 67.0156 179.386 66.4689C179.18 66.3888 178.969 66.3253 178.753 66.2792C177.048 65.8708 175.149 64.1094 173.533 62.2205C171.178 59.4951 168.175 57.4256 164.811 56.2083C163.247 55.6335 161.919 55.0241 161.919 55.0241C159.743 52.5112 153.835 54.0817 153.835 54.0817C146.683 58.7935 150.415 74.1851 150.415 74.1851L153.387 82.7668C155.045 87.5445 157.405 92.0175 160.128 96.2675C164.699 103.392 158.499 113.136 158.499 113.136C148.86 120.988 149.793 141.092 149.793 141.092Z" fill="#FF8AA1"/>
<path opacity="0.05" d="M176.378 126.485L177.491 143.353C189.378 144.415 192.08 140.778 192.08 140.778C190.221 135.497 188.763 124.302 187.855 115.648C187.724 114.405 187.606 113.214 187.497 112.099L176.378 126.485Z" fill="black"/>
<path opacity="0.1" d="M156.633 82.3522C156.633 82.3522 162.23 93.0321 164.096 97.7438C165.962 102.456 165.962 100.885 166.894 102.456C167.827 104.026 177.777 110.937 177.777 110.937L187.855 115.648C187.429 111.59 187.121 108.088 186.95 106.018L177.466 99.6285C177.466 99.6285 170.937 95.545 170.626 90.2051C170.315 84.8651 166.273 75.1275 166.273 75.1275C166.273 75.1275 158.188 66.3323 154.768 70.4158C151.348 74.4993 156.633 82.3522 156.633 82.3522Z" fill="black"/>
<path d="M166.273 73.5569C166.273 73.5569 170.315 83.2945 170.626 88.6345C170.937 93.9744 177.466 98.058 177.466 98.058L197.988 111.879C197.988 111.879 215.712 117.847 209.804 124.758C203.896 131.668 194.568 117.219 194.568 117.219L177.777 109.366C177.777 109.366 167.827 102.456 166.894 100.885C165.962 99.3144 165.962 100.885 164.096 96.1733C162.23 91.4615 156.634 80.7816 156.634 80.7816C156.634 80.7816 151.348 72.9287 154.768 68.8452C158.188 64.7617 166.273 73.5569 166.273 73.5569Z" fill="#FFCDD3"/>
<path opacity="0.1" d="M168.76 77.6404C168.76 77.6404 162.541 72.9287 161.298 71.3581C160.749 70.6648 159.896 70.7672 159.116 71.098C157.659 71.7285 156.074 71.9928 154.496 71.8686C153.135 71.7508 151.814 71.8293 151.969 72.6146C152.28 74.1852 151.037 64.4476 151.037 64.4476L156.323 62.5629L163.163 66.3323L168.76 77.6404Z" fill="black"/>
<path d="M168.76 77.0122C168.76 77.0122 162.541 72.3005 161.298 70.7299C160.749 70.0365 159.896 70.139 159.116 70.4698C157.659 71.1002 156.074 71.3646 154.496 71.2403C153.135 71.1225 151.814 71.2011 151.969 71.9863C152.28 73.5569 151.037 63.8193 151.037 63.8193L156.323 61.9346L163.163 65.704L168.76 77.0122Z" fill="#FF8AA1"/>
<path opacity="0.1" d="M183.403 77.6404C182.28 78.1378 181.057 78.3546 179.834 78.2726C178.612 78.1906 177.427 77.8122 176.378 77.1693" fill="black"/>
<path opacity="0.1" d="M163.008 35.706C163.24 33.8283 160.939 37.7281 160.676 35.5489L174.046 43.4018C174.046 43.4018 173.283 44.4635 172.307 46.14C171.8 46.1984 171.291 46.228 170.781 46.2289C166.758 46.2289 165.485 38.5218 163.008 35.706Z" fill="black"/>
<path d="M171.092 45.6006C178.562 45.6006 184.618 39.483 184.618 31.9366C184.618 24.3902 178.562 18.2726 171.092 18.2726C163.622 18.2726 157.566 24.3902 157.566 31.9366C157.566 39.483 163.622 45.6006 171.092 45.6006Z" fill="#FFCDD3"/>
<path opacity="0.1" d="M177.16 32.1751C177.059 33.0329 177.078 33.9397 176.674 34.7012C176.108 35.7674 174.889 36.2524 173.869 36.8869C169.738 39.4582 168.512 45.2434 169.829 49.962C170.294 51.6317 171.029 53.3263 170.724 55.0334C170.199 57.9673 166.891 59.4882 163.951 59.7487C161.012 60.0093 157.934 59.5279 155.185 60.6114C150.567 62.4311 148.534 67.9022 144.609 70.9597C140.043 74.5158 133.755 74.2956 128.004 74.7071C125.878 74.8592 123.721 75.1178 121.632 74.6882C119.543 74.2585 117.482 72.9864 116.745 70.9663C115.704 68.1159 117.6 65.0252 119.802 62.9561C122.004 60.887 124.692 59.1413 125.939 56.3765C127.614 52.66 126.26 47.966 128.368 44.4813C128.751 43.7743 129.354 43.2158 130.083 42.8929C131.011 42.5406 132.042 42.784 133.033 42.8184C136.873 42.9518 140.148 39.8574 141.931 36.4194C143.715 32.9815 144.473 29.09 146.104 25.5756C147.95 21.5983 151.025 18.0883 155.024 16.362C157.366 15.3506 159.923 14.9792 162.369 14.2596C165.149 13.4416 167.803 12.1684 170.65 11.6383C173.498 11.1081 176.724 11.4581 178.806 13.491C180.765 15.4044 181.337 18.4067 183.21 20.4064C183.918 21.1623 184.827 21.8015 185.168 22.7835C185.975 25.1099 182.059 25.3061 180.752 26.2375C179.782 26.9215 178.962 27.8023 178.343 28.8242C177.725 29.8462 177.322 30.9872 177.16 32.1751Z" fill="black"/>
<path d="M176.539 31.861C176.437 32.7188 176.456 33.6256 176.052 34.387C175.486 35.4532 174.267 35.9383 173.248 36.5727C169.116 39.1441 167.89 44.9292 169.207 49.6479C169.673 51.3176 170.407 53.0121 170.102 54.7193C169.578 57.6531 166.27 59.1741 163.33 59.4346C160.39 59.6952 157.312 59.2138 154.563 60.2973C149.945 62.1169 147.912 67.588 143.987 70.6455C139.421 74.2017 133.133 73.9814 127.382 74.3929C125.256 74.5451 123.099 74.8037 121.01 74.374C118.922 73.9444 116.861 72.6723 116.123 70.6521C115.082 67.8018 116.978 64.7111 119.18 62.642C121.382 60.5729 124.07 58.8272 125.317 56.0624C126.993 52.3459 125.638 47.6519 127.746 44.1672C128.129 43.4602 128.732 42.9017 129.461 42.5788C130.39 42.2264 131.42 42.4699 132.411 42.5043C136.251 42.6377 139.526 39.5433 141.31 36.1053C143.093 32.6674 143.851 28.7759 145.482 25.2614C147.328 21.2842 150.404 17.7742 154.402 16.0478C156.744 15.0365 159.301 14.6651 161.747 13.9455C164.527 13.1275 167.181 11.8543 170.029 11.3242C172.876 10.794 176.102 11.144 178.184 13.1769C180.144 15.0903 180.715 18.0926 182.588 20.0923C183.296 20.8481 184.205 21.4874 184.546 22.4694C185.353 24.7958 181.437 24.992 180.131 25.9234C179.16 26.6074 178.34 27.4882 177.722 28.5101C177.103 29.5321 176.701 30.6731 176.539 31.861Z" fill="#6C63FF"/>
<path d="M18.4936 242.614C18.4936 242.614 8.3602 224.224 20.9501 209.575C33.5401 194.925 48.2795 203.029 48.2795 203.029C48.2795 203.029 66.7038 211.757 62.4048 232.64C62.4048 232.64 59.9483 243.238 52.5785 242.614H18.4936Z" fill="#6C63FF"/>
<path opacity="0.2" d="M18.4936 242.614C18.4936 242.614 8.3602 224.224 20.9501 209.575C33.5401 194.925 48.2795 203.029 48.2795 203.029C48.2795 203.029 66.7038 211.757 62.4048 232.64C62.4048 232.64 59.9483 243.238 52.5785 242.614H18.4936Z" fill="white"/>
<path d="M34.4101 242.641L45.5159 208.328" stroke="#535461" stroke-miterlimit="10"/>
<path d="M55.6493 213.627C55.6493 213.627 49.9315 210.896 44.1923 212.417C44.1923 212.417 41.2169 204.9 34.4613 203.653" stroke="#535461" stroke-miterlimit="10"/>
<path d="M58.4129 225.471C58.4129 225.471 48.6899 218.338 41.5756 220.502C41.5756 220.502 33.5401 210.822 28.0128 211.445" stroke="#535461" stroke-miterlimit="10"/>
<path d="M56.2634 238.251C56.2634 238.251 47.9531 232.15 37.6759 232.551C37.6759 232.551 29.8552 222.978 22.4855 222.354" stroke="#535461" stroke-miterlimit="10"/>
<path d="M38.8466 242.641C37.5727 242.03 36.2434 241.547 34.8775 241.197C34.8775 241.197 28.4734 232.744 15.6532 235.497" stroke="#535461" stroke-miterlimit="10"/>
<path d="M128.118 242.614C128.118 242.614 138.252 225.783 113.072 200.848C87.8918 175.912 89.4271 171.237 91.5766 167.497C91.5766 167.497 71.3099 169.99 75.6089 200.848C79.9079 231.705 98.3322 242.614 98.3322 242.614H128.118Z" fill="#6C63FF"/>
<path d="M113.839 242.614C113.839 242.614 106.316 220.484 94.9545 207.081C83.5928 193.679 85.7423 171.549 91.5767 167.497" stroke="#535461" stroke-width="2" stroke-miterlimit="10"/>
<path d="M244.091 105.744C239.565 110.405 239.268 117.556 239.268 117.556C239.268 117.556 246.307 117.149 250.832 112.488C255.357 107.826 255.655 100.676 255.655 100.676C255.655 100.676 248.616 101.083 244.091 105.744Z" fill="#6C63FF"/>
<path d="M24.703 114.32C20.1779 118.981 19.8804 126.131 19.8804 126.131C19.8804 126.131 26.9196 125.724 31.4447 121.063C35.9699 116.402 36.2673 109.251 36.2673 109.251C36.2673 109.251 29.2282 109.658 24.703 114.32Z" fill="#FC6681"/>
<path d="M276.809 129.592C272.284 134.254 271.986 141.404 271.986 141.404C271.986 141.404 279.026 140.997 283.551 136.336C288.076 131.674 288.373 124.524 288.373 124.524C288.373 124.524 281.334 124.931 276.809 129.592Z" fill="#6C63FF"/>
<path d="M55.0531 124.469C49.0903 121.981 42.457 124.407 42.457 124.407C42.457 124.407 45.4915 130.867 51.4544 133.355C57.4173 135.843 64.0505 133.417 64.0505 133.417C64.0505 133.417 61.016 126.957 55.0531 124.469Z" fill="#6C63FF"/>
<path d="M130.029 115.123C126.582 109.593 119.789 107.678 119.789 107.678C119.789 107.678 118.584 114.729 122.03 120.259C125.477 125.79 132.271 127.705 132.271 127.705C132.271 127.705 133.476 120.653 130.029 115.123Z" fill="#FFD037"/>
<path d="M213.217 140.685C214.688 140.685 215.88 139.475 215.88 137.983C215.88 136.491 214.688 135.281 213.217 135.281C211.747 135.281 210.555 136.491 210.555 137.983C210.555 139.475 211.747 140.685 213.217 140.685Z" fill="#FC6681"/>
<path d="M219.429 169.507C220.899 169.507 222.091 168.297 222.091 166.805C222.091 165.313 220.899 164.103 219.429 164.103C217.959 164.103 216.767 165.313 216.767 166.805C216.767 168.297 217.959 169.507 219.429 169.507Z" fill="#FC6681"/>
<path d="M163.278 175.601C163.278 175.601 153.145 164.068 149.46 178.406C145.775 192.744 143.625 194.614 136.256 190.873C128.886 187.133 121.209 204.9 139.326 217.679C157.444 230.458 147.31 243.082 147.31 243.082H212.102C212.102 243.082 220.7 217.679 201.969 208.952C183.238 200.224 183.852 193.679 184.466 184.951C185.08 176.224 163.278 175.601 163.278 175.601Z" fill="#6C63FF"/>
<path d="M154.68 171.215C154.68 171.215 196.749 227.497 182.316 243.082" stroke="#535461" stroke-width="2" stroke-miterlimit="10"/>
<path d="M143.803 191.78C143.803 191.78 153.759 200.38 170.034 196.016C186.308 191.653 182.295 180.458 182.295 180.458" stroke="#535461" stroke-width="2" stroke-miterlimit="10"/>
<path d="M211.933 218.986C211.933 218.986 190.275 208.324 179.387 212.3C151.037 222.653 129.961 194.77 129.961 194.77" stroke="#535461" stroke-width="2" stroke-miterlimit="10"/>
<path d="M148.999 242.614C148.999 242.614 162.203 232.64 145.621 197.731C145.621 197.731 123.512 169.99 145.621 143.808C145.621 143.808 97.411 145.055 98.3322 190.562C99.2535 236.069 122.437 242.614 122.437 242.614H148.999Z" fill="#6C63FF"/>
<path d="M136.665 242.614C136.665 242.614 133.338 218.614 124.433 203.965C122.676 201.005 121.412 197.771 120.692 194.393C117.715 181.106 121.959 167.211 131.573 157.702L145.621 143.808" stroke="#535461" stroke-width="2" stroke-miterlimit="10"/>
<path opacity="0.1" d="M148.999 242.614C148.999 242.614 162.203 232.64 145.621 197.731C145.621 197.731 123.512 169.99 145.621 143.808C145.621 143.808 97.411 145.055 98.3322 190.562C99.2535 236.069 122.437 242.614 122.437 242.614H148.999Z" fill="black"/>
<path d="M267.357 242.34C267.357 242.34 222.173 232.086 279.663 172.088C279.663 172.088 304.445 195.928 295.354 225.565C291.698 237.481 279.94 244.838 268.03 242.48C267.807 242.436 267.583 242.389 267.357 242.34Z" fill="#6C63FF"/>
<path opacity="0.4" d="M267.357 242.34C266.364 242.115 223.146 231.071 279.663 172.088C279.663 172.088 304.445 195.928 295.354 225.565C291.698 237.481 279.94 244.838 268.03 242.48C267.807 242.436 267.583 242.389 267.357 242.34Z" fill="white"/>
<path d="M267.95 242.681C267.95 242.681 291.815 206.186 279.663 172.088" stroke="#535461" stroke-miterlimit="10"/>
<path d="M80.3498 242.34C80.3498 242.34 35.1663 232.086 92.6564 172.088C92.6564 172.088 117.438 195.928 108.347 225.565C104.692 237.481 92.9329 244.838 81.0233 242.48C80.8003 242.436 80.5758 242.389 80.3498 242.34Z" fill="#6C63FF"/>
<path opacity="0.4" d="M80.3498 242.34C79.3577 242.115 36.1393 231.071 92.6564 172.088C92.6564 172.088 117.438 195.928 108.347 225.565C104.692 237.481 92.9329 244.838 81.0233 242.48C80.8003 242.436 80.5758 242.389 80.3498 242.34Z" fill="white"/>
<path d="M80.9431 242.681C80.9431 242.681 104.808 206.186 92.6563 172.088" stroke="#535461" stroke-miterlimit="10"/>
<path d="M181.376 242.34C181.376 242.34 136.193 232.086 193.683 172.088C193.683 172.088 218.465 195.928 209.374 225.565C205.718 237.481 193.96 244.838 182.05 242.48C181.827 242.436 181.602 242.389 181.376 242.34Z" fill="#6C63FF"/>
<path opacity="0.4" d="M181.376 242.34C180.384 242.115 137.166 231.071 193.683 172.088C193.683 172.088 218.465 195.928 209.374 225.565C205.718 237.481 193.959 244.838 182.05 242.48C181.827 242.436 181.602 242.389 181.376 242.34Z" fill="white"/>
<path d="M181.97 242.681C181.97 242.681 205.835 206.186 193.683 172.088" stroke="#535461" stroke-miterlimit="10"/>
<path d="M320.173 242.34C320.173 242.34 274.989 232.086 332.479 172.088C332.479 172.088 357.262 195.928 348.17 225.565C344.515 237.481 332.756 244.838 320.846 242.48C320.623 242.436 320.399 242.389 320.173 242.34Z" fill="#6C63FF"/>
<path opacity="0.4" d="M320.173 242.34C319.181 242.115 275.962 231.071 332.479 172.088C332.479 172.088 357.262 195.928 348.17 225.565C344.515 237.481 332.756 244.838 320.846 242.48C320.623 242.436 320.399 242.389 320.173 242.34Z" fill="white"/>
<path d="M320.766 242.681C320.766 242.681 344.632 206.186 332.479 172.088" stroke="#535461" stroke-miterlimit="10"/>
<path d="M236.035 242.34C236.035 242.34 190.852 232.086 248.342 172.088C248.342 172.088 273.124 195.928 264.032 225.565C260.377 237.481 248.618 244.838 236.709 242.48C236.486 242.436 236.261 242.389 236.035 242.34Z" fill="#6C63FF"/>
<path opacity="0.4" d="M236.035 242.34C235.043 242.115 191.825 231.071 248.342 172.088C248.342 172.088 273.124 195.928 264.032 225.565C260.377 237.481 248.618 244.838 236.709 242.48C236.486 242.436 236.261 242.389 236.035 242.34Z" fill="white"/>
<path d="M236.628 242.681C236.628 242.681 260.494 206.186 248.342 172.088" stroke="#535461" stroke-miterlimit="10"/>
<path d="M78.8368 238.756C80.1706 237.729 81.4217 236.519 81.806 235.045C82.0041 234.265 81.8992 233.437 81.513 232.734C81.1268 232.03 80.4889 231.504 79.7312 231.265C77.8257 230.662 75.7894 231.756 74.2456 232.86C72.7018 233.964 70.9325 235.225 68.912 234.991C71.0053 233.457 72.0003 230.963 71.4232 228.698C71.3247 228.209 71.0809 227.763 70.7248 227.42C69.667 226.483 67.7494 226.885 66.4829 227.623C62.455 229.97 61.3311 234.501 61.3092 238.579C60.903 237.108 61.2451 235.575 61.2351 234.066C61.2251 232.557 60.7258 230.884 59.1887 230.074C58.2761 229.592 57.1487 229.499 56.0675 229.466C54.2569 229.411 52.2404 229.561 51.0039 230.658C49.4675 232.021 49.866 234.307 51.2025 235.807C52.5391 237.307 54.5722 238.247 56.4435 239.283C57.8697 240.073 59.3121 240.995 60.1889 242.242C60.3006 242.407 60.3938 242.584 60.4666 242.77H71.8173C74.3115 241.731 76.6693 240.383 78.8368 238.756Z" fill="#6C63FF"/>
<path d="M268.914 238.756C270.248 237.729 271.499 236.519 271.883 235.045C272.082 234.265 271.977 233.437 271.59 232.734C271.204 232.03 270.566 231.504 269.809 231.265C267.903 230.662 265.867 231.756 264.323 232.86C262.779 233.964 261.01 235.225 258.989 234.991C261.083 233.457 262.078 230.963 261.501 228.698C261.402 228.209 261.158 227.763 260.802 227.42C259.744 226.483 257.827 226.885 256.56 227.623C252.532 229.97 251.409 234.501 251.387 238.579C250.98 237.108 251.323 235.575 251.313 234.066C251.302 232.557 250.803 230.884 249.266 230.074C248.353 229.592 247.226 229.499 246.145 229.466C244.334 229.411 242.318 229.561 241.081 230.658C239.545 232.021 239.943 234.307 241.28 235.807C242.616 237.307 244.65 238.247 246.521 239.283C247.947 240.073 249.39 240.995 250.266 242.242C250.378 242.407 250.471 242.584 250.544 242.77H261.895C264.389 241.731 266.747 240.383 268.914 238.756Z" fill="#6C63FF"/>
<path d="M207.846 216.325C217.773 235.013 238.842 243.035 238.842 243.035C238.842 243.035 243.816 220.759 233.888 202.071C223.961 183.384 202.892 175.362 202.892 175.362C202.892 175.362 197.918 197.638 207.846 216.325Z" fill="#3F3D56"/>
<path d="M214.669 210.177C232.592 221.122 239.494 242.862 239.494 242.862C239.494 242.862 217.338 246.857 199.416 235.912C181.493 224.967 174.591 203.227 174.591 203.227C174.591 203.227 196.746 199.232 214.669 210.177Z" fill="#6C63FF"/>
<path d="M150.116 216.325C160.043 235.013 181.112 243.035 181.112 243.035C181.112 243.035 186.086 220.759 176.159 202.071C166.232 183.384 145.163 175.362 145.163 175.362C145.163 175.362 140.189 197.638 150.116 216.325Z" fill="#3F3D56"/>
<path d="M156.939 210.177C174.862 221.122 181.765 242.862 181.765 242.862C181.765 242.862 159.609 246.857 141.686 235.912C123.764 224.967 116.861 203.227 116.861 203.227C116.861 203.227 139.017 199.232 156.939 210.177Z" fill="#6C63FF"/>
<path d="M91.0835 153.171C73.9099 179.268 78.1726 212.754 78.1726 212.754C78.1726 212.754 110.279 203.927 127.453 177.83C144.627 151.733 140.364 118.248 140.364 118.248C140.364 118.248 108.257 127.074 91.0835 153.171Z" fill="#3F3D56"/>
<path d="M103.718 157.961C102.041 189.299 78.8461 213.499 78.8461 213.499C78.8461 213.499 58.3689 186.892 60.0455 155.554C61.722 124.217 84.9173 100.016 84.9173 100.016C84.9173 100.016 105.394 126.624 103.718 157.961Z" fill="#FC6681"/>
<path d="M335.567 193.518C336.214 229.056 315.625 241.853 289.952 242.334C289.356 242.345 288.763 242.35 288.172 242.347C286.981 242.344 285.803 242.311 284.636 242.249C261.435 241.017 243.195 228.311 242.594 195.261C241.971 161.058 284.252 117.087 287.424 113.835C287.427 113.835 287.427 113.835 287.43 113.832C287.55 113.708 287.612 113.646 287.612 113.646C287.612 113.646 334.921 157.983 335.567 193.518Z" fill="#6C63FF"/>
<path d="M288.162 236.93L304.725 212.498L288.167 239.578L288.172 242.347C286.981 242.344 285.803 242.311 284.636 242.249L285.822 206.662L285.802 206.387L285.833 206.334L285.946 202.971L268.37 176.465L285.951 200.454L286.007 201.165L286.902 174.278L271.77 146.831L286.996 169.554L287.424 113.835L287.426 113.649L287.43 113.832L287.989 157.756L302.232 140.072L287.995 161.539L288.047 185.599L301.228 162.262L288.057 189.136L288.087 202.514L307.24 170.015L288.094 207.181L288.162 236.93Z" fill="#3F3D56"/>
<path d="M263.405 193.518C264.052 229.056 243.464 241.853 217.791 242.334C217.194 242.345 216.601 242.35 216.01 242.347C214.82 242.344 213.641 242.311 212.475 242.249C189.274 241.017 171.033 228.311 170.432 195.261C169.81 161.058 212.09 117.087 215.262 113.835C215.265 113.835 215.265 113.835 215.268 113.832C215.388 113.708 215.45 113.646 215.45 113.646C215.45 113.646 262.759 157.983 263.405 193.518Z" fill="#6C63FF"/>
<path d="M216 236.93L232.563 212.498L216.005 239.578L216.01 242.347C214.82 242.344 213.641 242.311 212.475 242.249L213.66 206.662L213.64 206.387L213.671 206.334L213.784 202.971L196.208 176.465L213.789 200.454L213.845 201.165L214.74 174.278L199.608 146.831L214.834 169.554L215.262 113.835L215.264 113.649L215.268 113.832L215.827 157.756L230.07 140.072L215.833 161.539L215.885 185.599L229.067 162.262L215.895 189.136L215.925 202.514L235.079 170.015L215.932 207.181L216 236.93Z" fill="#3F3D56"/>
<path d="M349.693 194.141C350.339 229.68 329.751 242.477 304.078 242.958C303.481 242.969 302.888 242.973 302.297 242.971C301.107 242.967 299.928 242.934 298.762 242.872C275.561 241.641 257.32 228.934 256.719 195.884C256.097 161.681 298.378 117.71 301.549 114.458C301.552 114.458 301.552 114.458 301.555 114.455C301.675 114.331 301.737 114.269 301.737 114.269C301.737 114.269 349.046 158.606 349.693 194.141Z" fill="#3F3D56"/>
<path d="M302.287 237.553L318.851 213.122L302.292 240.201L302.297 242.971C301.107 242.967 299.928 242.934 298.762 242.872L299.947 207.285L299.928 207.01L299.958 206.957L300.071 203.595L282.495 177.088L300.077 201.077L300.132 201.789L301.028 174.901L285.895 147.454L301.121 170.177L301.549 114.458L301.552 114.273L301.555 114.455L302.114 158.379L316.357 140.695L302.12 162.163L302.172 186.222L315.354 162.885L302.183 189.759L302.212 203.137L321.366 170.638L302.22 207.804L302.287 237.553Z" fill="#FC6681"/>
<path d="M92.9805 193.518C93.6269 229.056 73.0387 241.853 47.3658 242.334C46.7694 242.345 46.1758 242.35 45.585 242.347C44.3947 242.344 43.2163 242.311 42.0497 242.249C18.8488 241.017 0.607949 228.311 0.0067976 195.26C-0.61533 161.058 41.6655 117.087 44.8372 113.835C44.8401 113.835 44.8401 113.835 44.8429 113.832C44.9634 113.708 45.0251 113.646 45.0251 113.646C45.0251 113.646 92.3342 157.983 92.9805 193.518Z" fill="#6C63FF"/>
<path d="M45.5749 236.93L62.1384 212.498L45.5803 239.578L45.585 242.347C44.3947 242.344 43.2163 242.311 42.0497 242.249L43.2348 206.662L43.2156 206.387L43.246 206.334L43.3589 202.971L25.7833 176.465L43.3645 200.454L43.4203 201.165L44.3155 174.278L29.183 146.831L44.4094 169.554L44.8373 113.835L44.8396 113.649L44.8429 113.832L45.4021 157.756L59.6452 140.072L45.4081 161.539L45.4604 185.599L58.6417 162.262L45.4705 189.136L45.4998 202.514L64.6537 170.015L45.5076 207.181L45.5749 236.93Z" fill="#3F3D56"/>
<path d="M281.925 247.753C270.876 245.853 260.249 244.221 250.046 242.858L254.08 234.92C252.72 234.44 246.744 238.986 246.744 238.986L252.037 215.944C245.197 216.781 241.719 240.309 241.719 240.309L234.076 232.354L237.776 241.297C206.549 237.564 179.58 236.18 156.896 236.13L160.348 229.336C158.988 228.857 153.012 233.403 153.012 233.403L158.306 210.36C151.465 211.198 147.987 234.725 147.987 234.725L140.345 226.771L144.264 236.243C125.247 236.629 109.739 237.947 97.7688 239.449C101.261 228.865 113.123 218.798 113.123 218.798C104.064 221.533 99.3117 226.116 96.8287 230.388C96.6068 208.55 100.184 186.843 107.397 166.266C107.397 166.266 88.672 207.626 91.0612 235.388L91.347 240.317C75.4729 242.624 67.4921 245.025 67.4921 245.025L281.925 247.753Z" fill="#3F3D56"/>
<path d="M317.852 245.883C306.803 243.983 296.177 242.351 285.974 240.988L290.007 233.05C288.647 232.57 282.672 237.116 282.672 237.116L287.965 214.074C281.124 214.911 277.646 238.439 277.646 238.439L270.004 230.484L273.704 239.427C242.476 235.694 215.507 234.31 192.823 234.26L196.276 227.466C194.915 226.987 188.94 231.533 188.94 231.533L194.233 208.49C187.393 209.328 183.915 232.855 183.915 232.855L176.272 224.901L180.191 234.373C161.174 234.759 145.666 236.076 133.696 237.578C137.188 226.994 149.05 216.928 149.05 216.928C139.991 219.663 135.239 224.246 132.756 228.518C132.534 206.679 136.112 184.973 143.324 164.396C143.324 164.396 124.599 205.755 126.989 233.517L127.274 238.447C111.4 240.754 103.419 243.155 103.419 243.155L317.852 245.883Z" fill="#3F3D56"/>
<path d="M359 249C347.951 247.1 337.324 245.468 327.121 244.105L331.155 236.166C329.795 235.687 323.819 240.233 323.819 240.233L329.112 217.191C322.272 218.028 318.794 241.556 318.794 241.556L311.151 233.601L314.852 242.544C283.624 238.811 256.655 237.427 233.971 237.377L237.423 230.583C236.063 230.104 230.087 234.649 230.087 234.649L235.381 211.607C228.54 212.444 225.062 235.972 225.062 235.972L217.42 228.018L221.339 237.49C202.322 237.876 186.814 239.193 174.844 240.695C178.336 230.111 190.198 220.045 190.198 220.045C181.139 222.78 176.387 227.363 173.904 231.635C173.682 209.796 177.259 188.089 184.472 167.513C184.472 167.513 165.747 208.872 168.136 236.634L168.422 241.564C152.548 243.871 144.567 246.272 144.567 246.272L359 249Z" fill="#3F3D56"/>
<path d="M222.967 245.883C211.918 243.983 201.292 242.351 191.089 240.988L195.122 233.05C193.762 232.57 187.786 237.116 187.786 237.116L193.08 214.074C186.239 214.911 182.761 238.439 182.761 238.439L175.119 230.484L178.819 239.427C147.591 235.694 120.622 234.31 97.9381 234.26L101.39 227.466C100.03 226.987 94.0547 231.533 94.0547 231.533L99.348 208.49C92.5075 209.328 89.0295 232.855 89.0295 232.855L81.3869 224.901L85.3059 234.373C66.2889 234.759 50.7809 236.076 38.811 237.578C42.3028 226.994 54.1648 216.928 54.1648 216.928C45.1059 219.663 40.354 224.246 37.871 228.518C37.6491 206.679 41.2265 184.973 48.4387 164.396C48.4387 164.396 29.7142 205.755 32.1035 233.517L32.3892 238.447C16.5151 240.754 8.53427 243.155 8.53427 243.155L222.967 245.883Z" fill="#3F3D56"/>
</g>
<defs>
<clipPath id="clip0">
<rect width="350" height="249" fill="white"/>
</clipPath>
</defs>
</svg>
