<svg width="318" height="64" viewBox="0 0 318 64" fill="none" xmlns="http://www.w3.org/2000/svg">
<path d="M244 39.3406C244.001 38.1028 244.265 36.8807 244.775 35.7628C245.284 34.6449 246.025 33.6592 246.945 32.8771C247.865 32.095 248.939 31.5361 250.092 31.2409C251.244 30.9456 252.445 30.9215 253.607 31.1702C254.77 31.4189 255.865 31.9341 256.812 32.6787C257.76 33.4233 258.537 34.3784 259.088 35.475C259.638 36.5716 259.948 37.7822 259.994 39.019C260.04 40.2557 259.822 41.4878 259.356 42.6259C259.364 42.6168 259.372 42.608 259.379 42.5989C259.024 43.4628 258.532 44.2579 257.922 44.9507C257.921 44.9528 257.919 44.9549 257.917 44.957C257.868 45.0128 257.818 45.0684 257.768 45.1229C257.037 45.9183 256.161 46.5542 255.193 46.9939C254.224 47.4335 253.182 47.6681 252.125 47.6839L252.396 63H251.56L251.729 52.8912L250.521 52.2277L250.706 51.8626L251.737 52.4291L251.817 47.6831C249.727 47.6332 247.739 46.7323 246.279 45.1732C244.818 43.6141 244 41.5206 244 39.3406Z" fill="#E6E6E6"/>
<path d="M160 39.3406C160.001 38.1028 160.282 36.8807 160.823 35.7628C161.364 34.6449 162.152 33.6592 163.129 32.8771C164.106 32.095 165.248 31.5361 166.473 31.2409C167.697 30.9456 168.973 30.9215 170.208 31.1702C171.443 31.4189 172.606 31.9341 173.613 32.6787C174.62 33.4233 175.446 34.3784 176.031 35.475C176.615 36.5716 176.944 37.7822 176.994 39.019C177.043 40.2557 176.811 41.4878 176.316 42.6259C176.324 42.6168 176.332 42.608 176.341 42.5989C175.963 43.4628 175.44 44.2579 174.793 44.9507C174.791 44.9528 174.789 44.9549 174.787 44.957C174.735 45.0128 174.682 45.0684 174.628 45.1229C173.852 45.9183 172.922 46.5542 171.892 46.9939C170.863 47.4335 169.755 47.6681 168.633 47.6839L168.92 63H168.033L168.213 52.8912L166.929 52.2277L167.125 51.8626L168.221 52.4291L168.305 47.6831C166.085 47.6332 163.973 46.7323 162.421 45.1732C160.869 43.6141 160 41.5206 160 39.3406Z" fill="#E6E6E6"/>
<path d="M76 39.3406C76.0006 38.1028 76.2652 36.8807 76.7745 35.7628C77.2839 34.6449 78.0252 33.6592 78.9449 32.8771C79.8646 32.095 80.9395 31.5361 82.0918 31.2409C83.2441 30.9456 84.445 30.9215 85.6074 31.1702C86.7697 31.4189 87.8645 31.9341 88.8124 32.6787C89.7602 33.4233 90.5375 34.3784 91.0877 35.475C91.638 36.5716 91.9475 37.7822 91.9939 39.019C92.0403 40.2557 91.8223 41.4878 91.3558 42.6259C91.3636 42.6168 91.3717 42.608 91.3795 42.5989C91.0241 43.4628 90.5315 44.2579 89.9224 44.9507C89.9206 44.9528 89.9187 44.9549 89.9169 44.957C89.8678 45.0128 89.8183 45.0684 89.7678 45.1229C89.0367 45.9183 88.1615 46.5542 87.1928 46.9939C86.2242 47.4335 85.1815 47.6681 84.1253 47.6839L84.3956 63H83.5604L83.7295 52.8912L82.5214 52.2277L82.7057 51.8626L83.7372 52.4291L83.8165 47.6831C81.7272 47.6332 79.7395 46.7323 78.2787 45.1732C76.8179 43.6141 76 41.5206 76 39.3406Z" fill="#E6E6E6"/>
<path d="M268 35.6438C268.001 34.2126 268.332 32.7996 268.968 31.507C269.605 30.2145 270.532 29.0747 271.681 28.1704C272.831 27.2661 274.174 26.6199 275.615 26.2785C277.055 25.9371 278.556 25.9092 280.009 26.1968C281.462 26.4843 282.831 27.0801 284.015 27.941C285.2 28.8019 286.172 29.9063 286.86 31.1743C287.548 32.4422 287.934 33.8419 287.992 35.2719C288.05 36.702 287.778 38.1265 287.195 39.4424C287.205 39.4319 287.215 39.4217 287.224 39.4112C286.78 40.4101 286.164 41.3295 285.403 42.1306C285.401 42.133 285.398 42.1353 285.396 42.1377C285.335 42.2023 285.273 42.2666 285.21 42.3296C284.296 43.2492 283.202 43.9846 281.991 44.4929C280.78 45.0013 279.477 45.2725 278.157 45.2908L278.495 63H277.451L277.662 51.3117L276.152 50.5446L276.382 50.1224L277.671 50.7774L277.771 45.2899C275.159 45.2321 272.674 44.1905 270.848 42.3878C269.022 40.5851 268 38.1645 268 35.6438Z" fill="#E6E6E6"/>
<path d="M185 35.6438C185.001 34.2126 185.315 32.7996 185.92 31.507C186.525 30.2145 187.405 29.0747 188.497 28.1704C189.589 27.2661 190.866 26.6199 192.234 26.2785C193.602 25.9371 195.028 25.9092 196.409 26.1968C197.789 26.4843 199.089 27.0801 200.215 27.941C201.34 28.8019 202.263 29.9063 202.917 31.1743C203.57 32.4422 203.938 33.8419 203.993 35.2719C204.048 36.702 203.789 38.1265 203.235 39.4424C203.244 39.4319 203.254 39.4217 203.263 39.4112C202.841 40.4101 202.256 41.3295 201.533 42.1306C201.531 42.133 201.529 42.1353 201.526 42.1377C201.468 42.2023 201.409 42.2666 201.349 42.3296C200.481 43.2492 199.442 43.9846 198.291 44.4929C197.141 45.0013 195.903 45.2725 194.649 45.2908L194.97 63H193.978L194.179 51.3117L192.744 50.5446L192.963 50.1224L194.188 50.7774L194.282 45.2899C191.801 45.2321 189.441 44.1905 187.706 42.3878C185.971 40.5851 185 38.1645 185 35.6438Z" fill="#E6E6E6"/>
<path d="M100 35.6438C100.001 34.2126 100.332 32.7996 100.968 31.507C101.605 30.2145 102.532 29.0747 103.681 28.1704C104.831 27.2661 106.174 26.6199 107.615 26.2785C109.055 25.9371 110.556 25.9092 112.009 26.1968C113.462 26.4843 114.831 27.0801 116.015 27.941C117.2 28.8019 118.172 29.9063 118.86 31.1743C119.548 32.4422 119.934 33.8419 119.992 35.2719C120.05 36.702 119.778 38.1265 119.195 39.4424C119.205 39.4319 119.215 39.4217 119.224 39.4112C118.78 40.4101 118.164 41.3295 117.403 42.1306C117.401 42.133 117.398 42.1353 117.396 42.1377C117.335 42.2023 117.273 42.2666 117.21 42.3296C116.296 43.2492 115.202 43.9846 113.991 44.4929C112.78 45.0013 111.477 45.2725 110.157 45.2908L110.495 63H109.451L109.662 51.3117L108.152 50.5446L108.382 50.1224L109.671 50.7774L109.771 45.2899C107.159 45.2321 104.674 44.1905 102.848 42.3878C101.022 40.5851 100 38.1645 100 35.6438Z" fill="#E6E6E6"/>
<path d="M296 31.947C296.001 30.3225 296.365 28.7185 297.065 27.2512C297.765 25.784 298.785 24.4902 300.049 23.4637C301.314 22.4372 302.792 21.7036 304.376 21.3161C305.961 20.9286 307.612 20.897 309.21 21.2234C310.808 21.5497 312.314 22.2261 313.617 23.2033C314.92 24.1805 315.989 25.4342 316.746 26.8735C317.502 28.3128 317.928 29.9016 317.992 31.5249C318.055 33.1482 317.756 34.7653 317.114 36.259C317.125 36.2471 317.136 36.2355 317.147 36.2235C316.658 37.3574 315.981 38.401 315.143 39.3104C315.141 39.3131 315.138 39.3158 315.136 39.3185C315.068 39.3918 315 39.4648 314.931 39.5363C313.925 40.5802 312.722 41.4149 311.39 41.992C310.058 42.569 308.625 42.8768 307.172 42.8976L307.544 63H306.396L306.628 49.7322L304.967 48.8614L305.22 48.3821L306.639 49.1257L306.748 42.8966C303.875 42.831 301.142 41.6486 299.133 39.6023C297.125 37.556 296 34.8083 296 31.947V31.947Z" fill="#E6E6E6"/>
<path d="M213 31.947C213.001 30.3225 213.348 28.7185 214.017 27.2512C214.685 25.784 215.658 24.4902 216.865 23.4637C218.072 22.4372 219.483 21.7036 220.996 21.3161C222.508 20.9286 224.084 20.897 225.61 21.2234C227.135 21.5497 228.572 22.2261 229.816 23.2033C231.06 24.1805 232.08 25.4342 232.803 26.8735C233.525 28.3128 233.931 29.9016 233.992 31.5249C234.053 33.1482 233.767 34.7653 233.154 36.259C233.165 36.2471 233.175 36.2355 233.186 36.2235C232.719 37.3574 232.073 38.401 231.273 39.3104C231.271 39.3131 231.268 39.3158 231.266 39.3185C231.201 39.3918 231.137 39.4648 231.07 39.5363C230.111 40.5802 228.962 41.4149 227.691 41.992C226.419 42.569 225.051 42.8768 223.664 42.8976L224.019 63H222.923L223.145 49.7322L221.559 48.8614L221.801 48.3821L223.155 49.1257L223.259 42.8966C220.517 42.831 217.908 41.6486 215.991 39.6023C214.074 37.556 213 34.8083 213 31.947V31.947Z" fill="#E6E6E6"/>
<path d="M128 31.947C128.001 30.3225 128.365 28.7185 129.065 27.2512C129.765 25.784 130.785 24.4902 132.049 23.4637C133.314 22.4372 134.792 21.7036 136.376 21.3161C137.961 20.9286 139.612 20.897 141.21 21.2234C142.808 21.5497 144.314 22.2261 145.617 23.2033C146.92 24.1805 147.989 25.4342 148.746 26.8735C149.502 28.3128 149.928 29.9016 149.992 31.5249C150.055 33.1482 149.756 34.7653 149.114 36.259C149.125 36.2471 149.136 36.2355 149.147 36.2235C148.658 37.3574 147.981 38.401 147.143 39.3104C147.141 39.3131 147.138 39.3158 147.136 39.3185C147.068 39.3918 147 39.4648 146.931 39.5363C145.925 40.5802 144.722 41.4149 143.39 41.992C142.058 42.569 140.625 42.8768 139.172 42.8976L139.544 63H138.396L138.628 49.7322L136.967 48.8614L137.22 48.3821L138.639 49.1257L138.748 42.8966C135.875 42.831 133.142 41.6486 131.133 39.6023C129.125 37.556 128 34.8083 128 31.947V31.947Z" fill="#E6E6E6"/>
<path d="M32 31.947C32.0009 30.3225 32.3647 28.7185 33.065 27.2512C33.7653 25.784 34.7847 24.4902 36.0492 23.4637C37.3138 22.4372 38.7918 21.7036 40.3762 21.3161C41.9607 20.9286 43.6118 20.897 45.2101 21.2234C46.8084 21.5497 48.3137 22.2261 49.617 23.2033C50.9203 24.1805 51.989 25.4342 52.7456 26.8735C53.5023 28.3128 53.9279 29.9016 53.9916 31.5249C54.0553 33.1482 53.7556 34.7653 53.1142 36.259C53.125 36.2471 53.1361 36.2355 53.1468 36.2235C52.6582 37.3574 51.9809 38.401 51.1433 39.3104C51.1408 39.3131 51.1383 39.3158 51.1358 39.3185C51.0682 39.3918 51.0002 39.4648 50.9307 39.5363C49.9255 40.5802 48.722 41.4149 47.3902 41.992C46.0583 42.569 44.6246 42.8768 43.1723 42.8976L43.544 63H42.3956L42.628 49.7322L40.9669 48.8614L41.2203 48.3821L42.6386 49.1257L42.7478 42.8966C39.8749 42.831 37.1418 41.6486 35.1332 39.6023C33.1246 37.556 32 34.8083 32 31.947V31.947Z" fill="#E6E6E6"/>
<path d="M264.5 15C260.358 15 257 11.6421 257 7.5C257 3.35786 260.358 0 264.5 0C268.642 0 272 3.35786 272 7.5C272 11.6421 268.642 15 264.5 15Z" fill="#FF6584"/>
<path d="M297.5 36C289.492 36 283 29.732 283 22C283 14.268 289.492 8 297.5 8C305.508 8 312 14.268 312 22C312 29.732 305.508 36 297.5 36Z" fill="#5F56E9"/>
<path d="M230.5 36C222.492 36 216 29.732 216 22C216 14.268 222.492 8 230.5 8C238.508 8 245 14.268 245 22C245 29.732 238.508 36 230.5 36Z" fill="#5F56E9"/>
<path d="M153.5 36C145.492 36 139 29.732 139 22C139 14.268 145.492 8 153.5 8C161.508 8 168 14.268 168 22C168 29.732 161.508 36 153.5 36Z" fill="#5F56E9"/>
<path d="M76.5 35C68.4919 35 62 28.732 62 21C62 13.268 68.4919 7 76.5 7C84.5081 7 91 13.268 91 21C91 28.732 84.5081 35 76.5 35Z" fill="#5F56E9"/>
<path opacity="0.2" d="M308.304 12C309.665 15.1444 309.849 18.6643 308.825 21.9308C307.8 25.1973 305.634 27.9974 302.712 29.8309C299.791 31.6644 296.304 32.4117 292.877 31.9393C289.449 31.467 286.302 29.8057 284 27.2523C284.831 29.1734 286.075 30.893 287.646 32.292C289.216 33.6909 291.076 34.7358 293.095 35.3542C295.115 35.9726 297.247 36.1497 299.343 35.8733C301.439 35.5969 303.449 34.8736 305.234 33.7534C307.019 32.6332 308.536 31.1431 309.68 29.3861C310.824 27.6291 311.568 25.6474 311.86 23.5782C312.152 21.5089 311.985 19.4017 311.371 17.4025C310.757 15.4033 309.711 13.5599 308.304 12Z" fill="black"/>
<path opacity="0.2" d="M241.304 12C242.665 15.1444 242.849 18.6643 241.825 21.9308C240.8 25.1973 238.634 27.9974 235.712 29.8309C232.791 31.6644 229.304 32.4117 225.877 31.9393C222.449 31.467 219.302 29.8057 217 27.2523C217.831 29.1734 219.075 30.893 220.646 32.292C222.216 33.6909 224.076 34.7358 226.095 35.3542C228.115 35.9726 230.247 36.1497 232.343 35.8733C234.439 35.5969 236.449 34.8736 238.234 33.7534C240.019 32.6332 241.536 31.1431 242.68 29.3861C243.824 27.6291 244.568 25.6474 244.86 23.5782C245.152 21.5089 244.985 19.4017 244.371 17.4025C243.757 15.4033 242.711 13.5599 241.304 12Z" fill="black"/>
<path opacity="0.2" d="M164.304 12C165.665 15.1444 165.849 18.6643 164.825 21.9308C163.8 25.1973 161.634 27.9974 158.712 29.8309C155.791 31.6644 152.304 32.4117 148.877 31.9393C145.449 31.467 142.302 29.8057 140 27.2523C140.831 29.1734 142.075 30.893 143.646 32.292C145.216 33.6909 147.076 34.7358 149.095 35.3542C151.115 35.9726 153.247 36.1497 155.343 35.8733C157.439 35.5969 159.449 34.8736 161.234 33.7534C163.019 32.6332 164.536 31.1431 165.68 29.3861C166.824 27.6291 167.568 25.6474 167.86 23.5782C168.152 21.5089 167.985 19.4017 167.371 17.4025C166.757 15.4033 165.711 13.5599 164.304 12Z" fill="black"/>
<path opacity="0.2" d="M87.3041 11C88.6646 14.1444 88.8492 17.6643 87.8248 20.9308C86.8005 24.1973 84.6339 26.9974 81.7123 28.8309C78.7907 30.6644 75.3044 31.4117 71.8765 30.9393C68.4486 30.467 65.3023 28.8057 63 26.2523C63.8311 28.1734 65.075 29.893 66.6455 31.292C68.216 32.6909 70.0756 33.7358 72.0954 34.3542C74.1152 34.9726 76.247 35.1497 78.3429 34.8733C80.4389 34.5969 82.449 33.8736 84.2339 32.7534C86.0188 31.6332 87.5359 30.1431 88.6801 28.3861C89.8243 26.6291 90.5682 24.6474 90.8602 22.5782C91.1523 20.5089 90.9855 18.4017 90.3714 16.4025C89.7574 14.4033 88.7108 12.5599 87.3041 11Z" fill="black"/>
<path d="M297.5 22H297.474L297 63H298L297.5 22Z" fill="#3F3D56"/>
<path d="M230 22H229.947L229 63H231L230 22Z" fill="#3F3D56"/>
<path d="M153.5 22H153.474L153 63H154L153.5 22Z" fill="#3F3D56"/>
<path d="M76.0001 21H75.9474L75 63H77L76.0001 21Z" fill="#3F3D56"/>
<path d="M294.714 44.308L295.048 43.6759L297.439 44.9332L297.105 45.5653L294.714 44.308Z" fill="#3F3D56"/>
<path d="M211.343 44.308L211.676 43.6759L214.067 44.9332L213.734 45.5653L211.343 44.308Z" fill="#3F3D56"/>
<path d="M127.271 44.4261L127.604 43.794L129.995 45.0513L129.662 45.6834L127.271 44.4261Z" fill="#3F3D56"/>
<path d="M31.2711 44.4261L31.6043 43.794L33.9952 45.0513L33.662 45.6834L31.2711 44.4261Z" fill="#3F3D56"/>
<path d="M275 62C275 62 274.953 60.8804 274 61.0105Z" fill="#3F3D56"/>
<path d="M192 62C192 62 191.953 60.8804 191 61.0105Z" fill="#3F3D56"/>
<path d="M108 63C108 63 107.953 60.7608 107 61.0211Z" fill="#3F3D56"/>
<path d="M19 64C19 64 18.9535 61.7608 18 62.0211Z" fill="#3F3D56"/>
<path d="M313 62C313 62 312.907 60.8804 311 61.0105Z" fill="#3F3D56"/>
<path d="M229 62C229 62 228.953 60.8804 228 61.0105Z" fill="#3F3D56"/>
<path d="M119 62C119 62 118.953 60.8804 118 61.0105Z" fill="#3F3D56"/>
<path d="M30 63C30 63 29.9535 61.8804 29 62.0105Z" fill="#3F3D56"/>
<path d="M119 62H120V63H119V62Z" fill="#3F3D56"/>
<path d="M30 63H31V64H30V63Z" fill="#3F3D56"/>
<path d="M304 62C304 62 303.907 60.8804 302 61.0105Z" fill="#3F3D56"/>
<path d="M220 62C220 62 219.953 60.8804 219 61.0105Z" fill="#3F3D56"/>
<path d="M136 63C136 63 135.953 60.7608 135 61.0211Z" fill="#3F3D56"/>
<path d="M280.203 13.0892L279 12.015C279.934 11.8999 280.318 12.469 280.475 12.9193C281.205 12.5809 282 13.0245 282 13.0245L279.594 14C279.715 13.6379 279.926 13.322 280.203 13.0892Z" fill="#3F3D56"/>
<path d="M196.604 13.0892L195 12.015C196.246 11.8999 196.758 12.469 196.967 12.9193C197.94 12.5809 199 13.0245 199 13.0245L195.791 14C195.953 13.6379 196.235 13.322 196.604 13.0892Z" fill="#3F3D56"/>
<path d="M118.203 12.0892L117 11.015C117.934 10.8999 118.318 11.469 118.475 11.9193C119.205 11.5809 120 12.0245 120 12.0245L117.594 13C117.715 12.6379 117.926 12.322 118.203 12.0892Z" fill="#3F3D56"/>
<path d="M22.2027 12.0892L21 11.015C21.9344 10.8999 22.3183 11.469 22.4754 11.9193C23.2054 11.5809 24 12.0245 24 12.0245L21.5935 13C21.7149 12.6379 21.9263 12.322 22.2027 12.0892Z" fill="#3F3D56"/>
<path d="M264.203 21.5446L263 21.0075C263.934 20.95 264.318 21.2345 264.475 21.4597C265.205 21.2904 266 21.5122 266 21.5122L263.594 22C263.715 21.819 263.926 21.661 264.203 21.5446V21.5446Z" fill="#3F3D56"/>
<path d="M180.802 21.5446L180 21.0075C180.623 20.95 180.879 21.2345 180.984 21.4597C181.47 21.2904 182 21.5122 182 21.5122L180.396 22C180.477 21.819 180.618 21.661 180.802 21.5446V21.5446Z" fill="#3F3D56"/>
<path d="M96.8018 22.0892L96 21.015C96.6229 20.8999 96.8788 21.469 96.9836 21.9193C97.4702 21.5809 98 22.0245 98 22.0245L96.3957 23C96.4766 22.6379 96.6175 22.322 96.8018 22.0892V22.0892Z" fill="#3F3D56"/>
<path d="M0.801828 22.0892L-8.01519e-08 21.015C0.622907 20.8999 0.878848 21.469 0.983595 21.9193C1.47023 21.5809 2 22.0245 2 22.0245L0.395685 23C0.476621 22.6379 0.617505 22.322 0.801828 22.0892V22.0892Z" fill="#3F3D56"/>
<path d="M281.802 29.5446L281 29.0075C281.623 28.95 281.879 29.2345 281.984 29.4597C282.47 29.2904 283 29.5122 283 29.5122L281.396 30C281.477 29.819 281.618 29.661 281.802 29.5446V29.5446Z" fill="#3F3D56"/>
<path d="M198.203 29.5446L197 29.0075C197.934 28.95 198.318 29.2345 198.475 29.4597C199.205 29.2904 200 29.5122 200 29.5122L197.594 30C197.715 29.819 197.926 29.661 198.203 29.5446V29.5446Z" fill="#3F3D56"/>
<path d="M114.203 29.5446L113 29.0075C113.934 28.95 114.318 29.2345 114.475 29.4597C115.205 29.2904 116 29.5122 116 29.5122L113.594 30C113.715 29.819 113.926 29.661 114.203 29.5446V29.5446Z" fill="#3F3D56"/>
<path d="M18.2027 29.5446L17 29.0075C17.9344 28.95 18.3183 29.2345 18.4754 29.4597C19.2054 29.2904 20 29.5122 20 29.5122L17.5935 30C17.7149 29.819 17.9263 29.661 18.2027 29.5446V29.5446Z" fill="#3F3D56"/>
<path d="M288 58.2105C288 58.2105 287.243 60.3684 287.568 61.1579L286.595 62L286 61.2632C286 61.2632 286.649 60.6316 286.595 60.1579C286.541 59.6842 286.486 58 286.486 58L288 58.2105Z" fill="#FFB9B9"/>
<path d="M284.227 62.9195C284.274 62.9481 284.319 62.9752 284.36 63H287.906C287.939 62.9803 287.965 62.9506 287.981 62.9149C287.998 62.8791 288.004 62.839 287.998 62.7998C287.981 62.711 287.939 62.5303 287.886 62.3226C287.762 61.8311 287.58 61.1875 287.54 61.256C287.54 61.256 287.54 61.256 287.54 61.256C287.54 61.2561 287.54 61.2561 287.54 61.2562C287.539 61.2563 287.539 61.2564 287.539 61.2564C287.539 61.2565 287.539 61.2566 287.539 61.2567C287.484 61.3636 287.37 61.8423 287.084 61.7829C286.798 61.7227 286.341 61.603 286.341 61.603C286.341 61.603 286.504 61.2191 286.348 61.064C286.314 61.0314 286.272 61.0106 286.226 61.0046C285.884 60.9451 285.884 61.4833 285.884 61.4833L284.627 62.2014C284.519 62.2328 284.413 62.2733 284.311 62.3226C284.056 62.4475 283.803 62.6613 284.227 62.9195Z" fill="#2F2E41"/>
<path d="M290.2 58L291.618 59.7222L292 60.6111L291.509 61L291.073 60.8333C291.073 60.8333 290.691 59.8333 290.309 59.6667C289.927 59.5 289 58.3889 289 58.3889L290.2 58Z" fill="#FFB9B9"/>
<path d="M287 55.7173L287.827 57.0033L288.419 57.9241C288.609 58.0188 288.862 58.0173 289.133 57.9613C289.26 57.9341 289.384 57.8993 289.505 57.8572C290.247 57.6024 291 57.0964 291 57.0964L289.576 55.6032L289.11 55.1161L289 55L288.468 55.191L287.529 55.5274L287 55.7173Z" fill="#2F2E41"/>
<path d="M290.334 43.4328L291 46.1649L290.314 49.67C290.314 49.67 290.298 51.1028 289.669 50.9941C289.041 50.8854 289.7 49.4403 289.7 49.4403L290.007 46.5663L289.024 43.7269C288.988 43.6108 288.993 43.4855 289.038 43.3726C289.084 43.2598 289.168 43.1666 289.276 43.1092V43.1092C289.665 42.8716 290.218 43.0407 290.334 43.4328Z" fill="#FFB9B9"/>
<path d="M288 40.4349L288.692 43L290 42.1755C290 42.1755 289.462 40.3433 289.462 40.0685C289.462 39.7936 288 40.4349 288 40.4349Z" fill="#FFB9B9"/>
<path d="M289 41C288.448 41 288 40.5523 288 40C288 39.4477 288.448 39 289 39C289.552 39 290 39.4477 290 40C290 40.5523 289.552 41 289 41Z" fill="#FFB9B9"/>
<path d="M288.415 43.1287L288.672 42.9165L288.736 42.6514C288.736 42.6514 289.572 41.7498 290.279 42.068C290.5 42.1674 290.665 42.3964 290.787 42.6641C291.097 43.3639 291.068 44.1353 290.706 44.818L289.572 47L287 46.7879L287.45 45.409C287.45 45.409 287 44.5605 287.836 43.9772L288.415 43.1287Z" fill="#6C63FF"/>
<path opacity="0.3" d="M287 55.7173L287.773 57.0033L288.327 57.9241C288.504 58.0188 288.741 58.0173 288.995 57.9613C289.039 57.6965 288.774 56.2975 288.983 55.157L288.973 55.1161L288.87 55L288.373 55.191L287.495 55.5274L287 55.7173Z" fill="black"/>
<path d="M287.191 47.3346C287.191 47.3346 288.599 46.4511 289.574 47.5555L289.519 47.8868C289.519 47.8868 290.332 48.8255 289.844 50.8135C289.357 52.8014 288.599 57.9921 288.599 57.9921C288.599 57.9921 286.812 58.1026 286 57.4952C286 57.4952 286.271 50.6478 287.191 49.9852V47.3346Z" fill="#2F2E41"/>
<path d="M290.889 43.8168L288.997 45.457L285.579 46.6389C285.579 46.6389 284.352 47.2797 284.039 46.854C283.727 46.4283 285.378 46.1661 285.378 46.1661L288.017 45.0444L289.795 43.1659C289.87 43.0911 289.98 43.0372 290.105 43.0134C290.231 42.9897 290.364 42.9976 290.482 43.0359C290.934 43.1609 291.147 43.5689 290.889 43.8168Z" fill="#FFB9B9"/>
<path d="M291.486 60.3041C291.486 60.3041 291.209 59.839 291.043 60.1321C290.878 60.4251 291.239 60.6763 291.239 60.6763L291.26 62.1881C291.26 62.1881 291.063 63.344 291.595 62.8974C292.127 62.4508 292.147 62.3973 292.252 62.1298C292.357 61.8623 292.573 60.7878 292.759 60.4412C292.946 60.0947 293.117 59.3969 292.895 59.3109C292.674 59.2248 291.642 58.9185 291.693 59.0206C291.744 59.1226 292.023 59.4528 291.879 59.6924C291.734 59.932 291.486 60.3041 291.486 60.3041Z" fill="#2F2E41"/>
<path d="M289 38.8461C289 38.8445 289 38.8429 289 38.8413C289 38.4771 289.088 38.1211 289.253 37.8183C289.418 37.5155 289.652 37.2795 289.926 37.1402C290.2 37.0008 290.502 36.9643 290.793 37.0354C291.084 37.1064 291.351 37.2818 291.561 37.5393C291.77 37.7968 291.913 38.1249 291.971 38.482C292.029 38.8392 291.999 39.2094 291.886 39.5459C291.772 39.8823 291.58 40.1699 291.333 40.3722C291.087 40.5745 290.797 40.6825 290.5 40.6825C290.465 40.6825 290.327 41.0029 290.293 41C290.291 40.0281 289.779 38.9114 289 38.8461Z" fill="#2F2E41"/>
<path d="M292 39C291.448 39 291 38.3284 291 37.5C291 36.6716 291.448 36 292 36C292.552 36 293 36.6716 293 37.5C293 38.3284 292.552 39 292 39Z" fill="#2F2E41"/>
<path d="M291 36.0411C290.812 36.0396 290.63 36.1254 290.488 36.2825C290.345 36.4397 290.252 36.6577 290.225 36.8963C290.198 37.135 290.239 37.3781 290.34 37.581C290.442 37.7838 290.597 37.9326 290.778 38C290.666 37.9998 290.556 37.9687 290.454 37.9089C290.353 37.8491 290.262 37.762 290.189 37.6535C290.116 37.545 290.062 37.4176 290.031 37.28C290 37.1423 289.992 36.9977 290.008 36.8558C290.024 36.7139 290.064 36.5781 290.124 36.4577C290.185 36.3372 290.265 36.2349 290.359 36.1576C290.453 36.0804 290.559 36.03 290.67 36.0099C290.78 35.9898 290.893 36.0004 291 36.0411V36.0411Z" fill="#2F2E41"/>
<path d="M289 38H288.643C288.472 38 288.309 38.1054 288.188 38.2929C288.068 38.4804 288 38.7348 288 39V39H289V38Z" fill="#2F2E41"/>
<path d="M260 63C260 63 259.953 61.8804 259 62.0105Z" fill="#3F3D56"/>
<path d="M178 63C178 63 177.907 61.8804 176 62.0105Z" fill="#3F3D56"/>
<path d="M93 63C93 63 92.9535 61.8804 92 62.0105Z" fill="#3F3D56"/>
<path d="M188 63C188 63 187.907 61.8804 186 62.0105Z" fill="#3F3D56"/>
<path d="M103 63C103 63 102.953 61.8804 102 62.0105Z" fill="#3F3D56"/>
<path d="M14 64C14 64 13.9535 62.8804 13 63.0105Z" fill="#3F3D56"/>
<path d="M307 63C307 63 306.953 61.8804 306 62.0105Z" fill="#3F3D56"/>
<path d="M224 63C224 63 223.953 61.8804 223 62.0105Z" fill="#3F3D56"/>
<path d="M140 63C140 63 139.953 61.8804 139 62.0105Z" fill="#3F3D56"/>
<path d="M256 63C256 63 255.953 61.8804 255 62.0105Z" fill="#3F3D56"/>
<path d="M173 63C173 63 172.907 61.8804 171 62.0105Z" fill="#3F3D56"/>
<path d="M89 63C89 63 88.9535 61.8804 88 62.0105Z" fill="#3F3D56"/>
<path d="M258 63C258 63 257.953 61.8804 257 62.0105Z" fill="#3F3D56"/>
<path d="M175 63C175 63 174.953 61.8804 174 62.0105Z" fill="#3F3D56"/>
<path d="M91 63C91 63 90.907 61.8804 89 62.0105Z" fill="#3F3D56"/>
<path d="M179 63C179 63 179.093 61.8804 181 62.0105Z" fill="#3F3D56"/>
<path d="M95 63C95 63 95.0465 61.8804 96 62.0105Z" fill="#3F3D56"/>
<path d="M280 63C280 63 280.047 61.8804 281 62.0105Z" fill="#3F3D56"/>
<path d="M196 63C196 63 196.093 61.8804 198 62.0105Z" fill="#3F3D56"/>
<path d="M113 63C113 63 113.047 61.8804 114 62.0105Z" fill="#3F3D56"/>
<path d="M24 64C24 64 24.0465 62.8804 25 63.0105Z" fill="#3F3D56"/>
<path d="M211 63C211 63 211.047 61.8804 212 62.0105Z" fill="#3F3D56"/>
<path d="M127 63C127 63 127.047 61.8804 128 62.0105Z" fill="#3F3D56"/>
<path d="M38 64C38 64 38.0465 62.8804 39 63.0105Z" fill="#3F3D56"/>
<path d="M309 63C309 63 309.093 61.8804 311 62.0105Z" fill="#3F3D56"/>
<path d="M142 63C142 63 142.047 61.8804 143 62.0105Z" fill="#3F3D56"/>
<path d="M168 63C168 63 168.047 61.8804 169 62.0105Z" fill="#3F3D56"/>
<path d="M84 63C84 63 84.0465 61.8804 85 62.0105Z" fill="#3F3D56"/>
<path d="M258 63C258 63 258.047 61.8804 259 62.0105Z" fill="#3F3D56"/>
<path d="M174 63C174 63 174.093 61.8804 176 62.0105Z" fill="#3F3D56"/>
<path d="M91 63C91 63 91.0465 61.8804 92 62.0105Z" fill="#3F3D56"/>
</svg>
