<svg width="321" height="290" viewBox="0 0 321 290" fill="none" xmlns="http://www.w3.org/2000/svg">
<g clip-path="url(#clip0)">
<path opacity="0.1" d="M325.092 250.928C322.394 252.327 319.568 253.534 316.78 254.738C306.48 259.112 296.025 263.524 284.959 265.025C264.177 267.807 242.732 260.187 222.314 264.942C205.21 268.912 191.065 281.077 174.355 286.495C166.585 289.013 158.501 290 150.345 290H149.292C148.282 289.987 147.279 289.962 146.284 289.924C138.015 289.611 129.711 288.381 121.604 286.807C96.0073 281.854 69.9558 272.775 50.3859 256.06C107.368 245.59 224.746 229.52 325.092 250.928Z" fill="#252223"/>
<path opacity="0.3" d="M344.953 125.598V101.214H330.558V125.598H313.511V87.8787H301.01V59.6846H290.782V30.7285H269.568V59.6846H259.34V87.8787H247.217V53.9696H240.399V36.8245H236.232V53.9696H211.987V162.174H193.425V150.744H182.06V162.174H163.498V125.598H130.162V101.214H115.767V125.598H115.009V172.461H99.8561V145.029H81.6727V172.461H66.5198V87.8787H54.7764V59.6846H11.5908V87.8787H0.226204V236.85H66.5198H115.009H163.498H211.987H247.217H313.511H362V125.598H344.953Z" fill="#6C63FF"/>
<path opacity="0.4" d="M23.3343 96.6417H7.42381V105.786H23.3343V96.6417Z" fill="white"/>
<path opacity="0.4" d="M43.033 105.786H58.9434V96.6417H43.033V105.786Z" fill="white"/>
<path opacity="0.4" d="M23.3343 114.549H7.42381V123.693H23.3343V114.549Z" fill="white"/>
<path opacity="0.4" d="M43.033 123.693H58.9434V114.549H43.033V123.693Z" fill="white"/>
<path opacity="0.4" d="M23.3343 132.456H7.42381V141.6H23.3343V132.456Z" fill="white"/>
<path opacity="0.4" d="M43.033 141.6H58.9434V132.456H43.033V141.6Z" fill="white"/>
<path opacity="0.4" d="M23.3343 150.363H7.42381V159.507H23.3343V150.363Z" fill="white"/>
<path opacity="0.4" d="M43.033 159.507H58.9434V150.363H43.033V159.507Z" fill="white"/>
<path opacity="0.4" d="M23.3343 168.27H7.42381V177.414H23.3343V168.27Z" fill="white"/>
<path opacity="0.4" d="M43.033 177.414H58.9434V168.27H43.033V177.414Z" fill="white"/>
<path opacity="0.4" d="M23.3343 186.177H7.42381V195.321H23.3343V186.177Z" fill="white"/>
<path opacity="0.4" d="M43.033 195.321H58.9434V186.177H43.033V195.321Z" fill="white"/>
<path opacity="0.4" d="M23.3343 204.084H7.42381V213.228H23.3343V204.084Z" fill="white"/>
<path opacity="0.4" d="M43.033 213.228H58.9434V204.084H43.033V213.228Z" fill="white"/>
<path opacity="0.4" d="M109.327 181.605H72.2021V186.177H109.327V181.605Z" fill="white"/>
<path opacity="0.4" d="M109.327 188.463H72.2021V193.035H109.327V188.463Z" fill="white"/>
<path opacity="0.4" d="M109.327 195.321H72.2021V199.893H109.327V195.321Z" fill="white"/>
<path opacity="0.4" d="M206.305 183.891H169.18V188.463H206.305V183.891Z" fill="white"/>
<path opacity="0.4" d="M206.305 190.749H169.18V195.321H206.305V190.749Z" fill="white"/>
<path opacity="0.4" d="M206.305 197.607H169.18V202.179H206.305V197.607Z" fill="white"/>
<path opacity="0.4" d="M109.327 202.179H72.2021V206.751H109.327V202.179Z" fill="white"/>
<path opacity="0.4" d="M109.327 209.037H72.2021V213.609H109.327V209.037Z" fill="white"/>
<path opacity="0.4" d="M109.327 215.895H72.2021V220.467H109.327V215.895Z" fill="white"/>
<path opacity="0.4" d="M133.192 134.361H122.964V147.696H133.192V134.361Z" fill="white"/>
<path opacity="0.4" d="M145.315 147.696H155.543V134.361H145.315V147.696Z" fill="white"/>
<path opacity="0.4" d="M133.192 155.697H122.964V169.032H133.192V155.697Z" fill="white"/>
<path opacity="0.4" d="M145.315 169.032H155.543V155.697H145.315V169.032Z" fill="white"/>
<path opacity="0.4" d="M133.192 177.033H122.964V190.368H133.192V177.033Z" fill="white"/>
<path opacity="0.4" d="M145.315 190.368H155.543V177.033H145.315V190.368Z" fill="white"/>
<path opacity="0.4" d="M133.192 198.369H122.964V211.704H133.192V198.369Z" fill="white"/>
<path opacity="0.4" d="M145.315 211.704H155.543V198.369H145.315V211.704Z" fill="white"/>
<path opacity="0.4" d="M225.625 62.7326H211.987V80.2587H225.625V62.7326Z" fill="white"/>
<path opacity="0.4" d="M225.625 87.8787H211.987V105.405H225.625V87.8787Z" fill="white"/>
<path opacity="0.4" d="M225.625 113.025H211.987V130.551H225.625V113.025Z" fill="white"/>
<path opacity="0.4" d="M225.625 138.171H211.987V155.697H225.625V138.171Z" fill="white"/>
<path opacity="0.4" d="M225.625 163.317H211.987V180.843H225.625V163.317Z" fill="white"/>
<path opacity="0.4" d="M225.625 188.463H211.987V205.989H225.625V188.463Z" fill="white"/>
<path opacity="0.4" d="M305.745 98.5468H254.983V113.406H305.745V98.5468Z" fill="white"/>
<path opacity="0.4" d="M305.935 130.551H255.173V145.41H305.935V130.551Z" fill="white"/>
<path opacity="0.4" d="M306.124 162.555H255.362V177.414H306.124V162.555Z" fill="white"/>
<path opacity="0.4" d="M306.313 194.559H255.551V209.418H306.313V194.559Z" fill="white"/>
<path opacity="0.4" d="M18.4096 67.6856H11.5908V82.1637H18.4096V67.6856Z" fill="white"/>
<path d="M19.0422 213.438C19.0422 213.438 -10.7823 231.535 44.1959 259.398C44.1959 259.398 56.3182 236.782 42.9155 218.341C40.3161 214.747 36.4962 212.236 32.1794 211.285C27.8627 210.333 23.3488 211.007 19.493 213.179L19.0422 213.438Z" fill="#6C63FF"/>
<path d="M19.387 213.057C19.387 213.057 44.9081 232.697 44.1959 259.398" stroke="#535461" stroke-miterlimit="10"/>
<path d="M45.5824 260.427C45.5824 260.427 36.2369 228.514 47.3364 205.025C51.9959 195.169 53.5415 184.101 51.3897 173.402C50.3609 168.323 48.8709 163.349 46.9386 158.543" stroke="#535461" stroke-width="2" stroke-miterlimit="10"/>
<path d="M53.8293 143.718C53.8293 147.631 46.7871 158.958 46.7871 158.958C46.7871 158.958 39.7448 147.616 39.7448 143.718C39.723 142.775 39.889 141.836 40.2331 140.958C40.5771 140.08 41.0922 139.279 41.7481 138.604C42.404 137.929 43.1875 137.392 44.0525 137.026C44.9175 136.66 45.8466 136.471 46.7852 136.471C47.7237 136.471 48.6528 136.66 49.5178 137.026C50.3828 137.392 51.1663 137.929 51.8222 138.604C52.4781 139.279 52.9933 140.08 53.3373 140.958C53.6813 141.836 53.8473 142.775 53.8255 143.718H53.8293Z" fill="#6C63FF"/>
<path d="M65.4819 165.382C63.368 168.666 51.3291 174.336 51.3291 174.336C51.3291 174.336 51.5488 160.966 53.6627 157.682C54.6995 156.157 56.2879 155.099 58.089 154.735C59.8901 154.371 61.7613 154.73 63.3034 155.734C64.8455 156.738 65.9364 158.309 66.3434 160.11C66.7504 161.912 66.4412 163.803 65.4819 165.378V165.382Z" fill="#6C63FF"/>
<path d="M64.9705 202.404C61.4967 204.164 48.2607 202.949 48.2607 202.949C48.2607 202.949 55.159 191.519 58.6328 189.759C60.2949 188.957 62.2034 188.842 63.9484 189.44C65.6934 190.038 67.1359 191.3 67.966 192.955C68.7962 194.611 68.9478 196.527 68.3885 198.294C67.8291 200.061 66.6033 201.536 64.9742 202.404H64.9705Z" fill="#6C63FF"/>
<path d="M58.3146 230.328C55.1893 232.652 41.9344 233.703 41.9344 233.703C41.9344 233.703 46.8136 221.267 49.9389 218.939C50.6817 218.377 51.5279 217.969 52.4285 217.738C53.3291 217.506 54.2663 217.456 55.1862 217.591C56.106 217.726 56.9903 218.042 57.7879 218.522C58.5855 219.002 59.2808 219.636 59.8336 220.388C60.3864 221.139 60.7858 221.994 61.0087 222.901C61.2316 223.809 61.2737 224.752 61.1325 225.676C60.9913 226.6 60.6696 227.487 60.1859 228.285C59.7023 229.083 59.0663 229.778 58.3146 230.328Z" fill="#6C63FF"/>
<path d="M36.5437 175.094C39.3319 177.818 52.3292 180.641 52.3292 180.641C52.3292 180.641 49.1471 167.66 46.359 164.932C45.7013 164.258 44.9163 163.724 44.0501 163.359C43.1838 162.995 42.2539 162.808 41.3149 162.811C40.376 162.813 39.447 163.004 38.5826 163.373C37.7182 163.742 36.9359 164.281 36.2816 164.958C35.6274 165.635 35.1144 166.438 34.7729 167.317C34.4313 168.197 34.2682 169.136 34.2929 170.08C34.3177 171.024 34.5299 171.954 34.9171 172.814C35.3043 173.674 35.8587 174.448 36.5475 175.09L36.5437 175.094Z" fill="#6C63FF"/>
<path d="M29.1719 207.848C32.6457 209.609 45.8817 208.393 45.8817 208.393C45.8817 208.393 38.9834 196.963 35.5096 195.203C33.8474 194.401 31.939 194.287 30.1939 194.885C28.4489 195.482 27.0065 196.744 26.1763 198.4C25.3462 200.055 25.1945 201.972 25.7539 203.738C26.3132 205.505 27.539 206.981 29.1681 207.848H29.1719Z" fill="#6C63FF"/>
<path d="M26.3497 240.676C29.475 243 42.7299 244.051 42.7299 244.051C42.7299 244.051 37.8507 231.612 34.7216 229.287C33.2191 228.188 31.3456 227.731 29.5091 228.015C27.6727 228.298 26.0223 229.301 24.9173 230.803C23.8124 232.305 23.3425 234.186 23.6101 236.035C23.8777 237.884 24.861 239.552 26.3459 240.676H26.3497Z" fill="#6C63FF"/>
<path opacity="0.25" d="M53.8293 143.718C53.8293 147.631 46.7871 158.958 46.7871 158.958C46.7871 158.958 39.7448 147.616 39.7448 143.718C39.723 142.775 39.889 141.836 40.2331 140.958C40.5771 140.08 41.0922 139.279 41.7481 138.604C42.404 137.929 43.1875 137.392 44.0525 137.026C44.9175 136.66 45.8466 136.471 46.7852 136.471C47.7237 136.471 48.6528 136.66 49.5178 137.026C50.3828 137.392 51.1663 137.929 51.8222 138.604C52.4781 139.279 52.9933 140.08 53.3373 140.958C53.6813 141.836 53.8473 142.775 53.8255 143.718H53.8293Z" fill="black"/>
<path opacity="0.25" d="M65.4819 165.382C63.368 168.666 51.3291 174.336 51.3291 174.336C51.3291 174.336 51.5488 160.966 53.6627 157.682C54.6995 156.157 56.2879 155.099 58.089 154.735C59.8901 154.371 61.7613 154.73 63.3034 155.734C64.8455 156.738 65.9364 158.309 66.3434 160.11C66.7504 161.912 66.4412 163.803 65.4819 165.378V165.382Z" fill="black"/>
<path opacity="0.25" d="M64.9705 202.404C61.4967 204.164 48.2607 202.949 48.2607 202.949C48.2607 202.949 55.159 191.519 58.6328 189.759C60.2949 188.957 62.2034 188.842 63.9484 189.44C65.6934 190.038 67.1359 191.3 67.966 192.955C68.7962 194.611 68.9478 196.527 68.3885 198.294C67.8291 200.061 66.6033 201.536 64.9742 202.404H64.9705Z" fill="black"/>
<path opacity="0.25" d="M58.3146 230.328C55.1893 232.652 41.9344 233.703 41.9344 233.703C41.9344 233.703 46.8136 221.267 49.9389 218.939C50.6817 218.377 51.5279 217.969 52.4285 217.738C53.3291 217.506 54.2663 217.456 55.1862 217.591C56.106 217.726 56.9903 218.042 57.7879 218.522C58.5855 219.002 59.2808 219.636 59.8336 220.388C60.3864 221.139 60.7858 221.994 61.0087 222.901C61.2316 223.809 61.2737 224.752 61.1325 225.676C60.9913 226.6 60.6696 227.487 60.1859 228.285C59.7023 229.083 59.0663 229.778 58.3146 230.328Z" fill="black"/>
<path opacity="0.25" d="M36.5437 175.094C39.3319 177.818 52.3292 180.641 52.3292 180.641C52.3292 180.641 49.1471 167.66 46.359 164.932C45.7013 164.258 44.9163 163.724 44.0501 163.359C43.1838 162.995 42.2539 162.808 41.3149 162.811C40.376 162.813 39.447 163.004 38.5826 163.373C37.7182 163.742 36.9359 164.281 36.2816 164.958C35.6274 165.635 35.1144 166.438 34.7729 167.317C34.4313 168.197 34.2682 169.136 34.2929 170.08C34.3177 171.024 34.5299 171.954 34.9171 172.814C35.3043 173.674 35.8587 174.448 36.5475 175.09L36.5437 175.094Z" fill="black"/>
<path opacity="0.25" d="M29.1719 207.848C32.6457 209.609 45.8817 208.393 45.8817 208.393C45.8817 208.393 38.9834 196.963 35.5096 195.203C33.8474 194.401 31.939 194.287 30.1939 194.885C28.4489 195.482 27.0065 196.744 26.1763 198.4C25.3462 200.055 25.1945 201.972 25.7539 203.738C26.3132 205.505 27.539 206.981 29.1681 207.848H29.1719Z" fill="black"/>
<path opacity="0.25" d="M26.3497 240.676C29.475 243 42.7299 244.051 42.7299 244.051C42.7299 244.051 37.8507 231.612 34.7216 229.287C33.2191 228.188 31.3456 227.731 29.5091 228.015C27.6727 228.298 26.0223 229.301 24.9173 230.803C23.8124 232.305 23.3425 234.186 23.6101 236.035C23.8777 237.884 24.861 239.552 26.3459 240.676H26.3497Z" fill="black"/>
<path d="M320.898 199.607C324.372 201.368 337.608 200.152 337.608 200.152C337.608 200.152 330.709 188.722 327.236 186.962C325.575 186.172 323.673 186.067 321.936 186.667C320.199 187.268 318.764 188.527 317.937 190.177C317.11 191.827 316.957 193.736 317.51 195.498C318.063 197.26 319.279 198.734 320.898 199.607Z" fill="#6C63FF"/>
<path d="M318.061 232.434C321.186 234.759 334.441 235.81 334.441 235.81C334.441 235.81 329.562 223.374 326.436 221.046C324.934 219.947 323.06 219.49 321.224 219.773C319.387 220.057 317.737 221.06 316.632 222.562C315.527 224.064 315.057 225.945 315.325 227.794C315.592 229.643 316.576 231.311 318.061 232.434Z" fill="#6C63FF"/>
<path d="M295.138 249.08C295.138 249.08 290.115 231.935 296.081 219.309C298.617 214.031 299.381 208.068 298.26 202.316C297.707 199.59 296.906 196.921 295.869 194.342" stroke="#535461" stroke-width="2" stroke-miterlimit="10"/>
<path d="M299.578 186.36C299.578 188.463 295.79 194.555 295.79 194.555C295.79 194.555 292.001 188.459 292.001 186.36C292.001 185.349 292.401 184.38 293.111 183.666C293.821 182.951 294.785 182.55 295.79 182.55C296.794 182.55 297.758 182.951 298.468 183.666C299.179 184.38 299.578 185.349 299.578 186.36Z" fill="#6C63FF"/>
<path d="M305.832 198.003C304.696 199.767 298.226 202.815 298.226 202.815C298.226 202.815 298.343 195.63 299.479 193.866C299.738 193.421 300.083 193.034 300.495 192.728C300.906 192.421 301.375 192.202 301.873 192.082C302.371 191.963 302.888 191.947 303.393 192.034C303.897 192.122 304.379 192.311 304.809 192.591C305.238 192.871 305.607 193.236 305.893 193.663C306.179 194.09 306.375 194.571 306.471 195.077C306.567 195.583 306.559 196.103 306.45 196.606C306.34 197.109 306.13 197.584 305.832 198.003Z" fill="#6C63FF"/>
<path d="M305.56 217.895C303.692 218.84 296.578 218.189 296.578 218.189C296.578 218.189 300.286 212.047 302.15 211.102C303.04 210.698 304.051 210.655 304.972 210.982C305.893 211.309 306.652 211.981 307.092 212.858C307.532 213.735 307.618 214.749 307.333 215.688C307.047 216.628 306.412 217.42 305.56 217.899V217.895Z" fill="#6C63FF"/>
<path d="M301.98 232.903C300.298 234.153 293.176 234.717 293.176 234.717C293.176 234.717 295.797 228.034 297.479 226.784C298.289 226.241 299.275 226.032 300.233 226.2C301.191 226.369 302.049 226.901 302.627 227.688C303.206 228.474 303.461 229.455 303.341 230.426C303.22 231.397 302.733 232.284 301.98 232.903Z" fill="#6C63FF"/>
<path d="M290.282 203.223C291.797 204.686 298.763 206.206 298.763 206.206C298.763 206.206 297.055 199.23 295.555 197.767C295.204 197.391 294.782 197.09 294.312 196.883C293.843 196.676 293.337 196.567 292.825 196.562C292.312 196.558 291.804 196.658 291.331 196.856C290.858 197.055 290.43 197.348 290.073 197.717C289.716 198.087 289.437 198.526 289.254 199.007C289.07 199.488 288.985 200.002 289.005 200.517C289.024 201.032 289.148 201.538 289.367 202.004C289.587 202.469 289.898 202.886 290.282 203.227V203.223Z" fill="#6C63FF"/>
<path d="M286.319 220.825C288.187 221.77 295.301 221.119 295.301 221.119C295.301 221.119 291.592 214.977 289.729 214.032C288.839 213.628 287.828 213.585 286.907 213.912C285.986 214.239 285.226 214.911 284.787 215.788C284.347 216.665 284.261 217.679 284.546 218.618C284.832 219.558 285.467 220.35 286.319 220.829V220.825Z" fill="#6C63FF"/>
<path d="M284.804 238.47C286.486 239.719 293.608 240.283 293.608 240.283C293.608 240.283 290.971 233.597 289.304 232.347C288.495 231.793 287.504 231.576 286.539 231.741C285.574 231.906 284.71 232.441 284.128 233.233C283.546 234.024 283.291 235.012 283.417 235.988C283.543 236.964 284.04 237.854 284.804 238.47Z" fill="#6C63FF"/>
<path opacity="0.1" d="M100.492 48.8946H97.8862C98.1327 48.9059 98.379 48.8669 98.6101 48.7798C98.8412 48.6927 99.0523 48.5594 99.2307 48.3879C99.4092 48.2164 99.5512 48.0104 99.6482 47.7821C99.7452 47.5539 99.7953 47.3083 99.7953 47.0601C99.7953 46.8119 99.7452 46.5663 99.6482 46.3381C99.5512 46.1098 99.4092 45.9038 99.2307 45.7323C99.0523 45.5608 98.8412 45.4275 98.6101 45.3405C98.379 45.2534 98.1327 45.2143 97.8862 45.2256H76.7745C76.3051 45.2471 75.8621 45.4498 75.5375 45.7915C75.2129 46.1331 75.0318 46.5875 75.0318 47.0601C75.0318 47.5327 75.2129 47.9871 75.5375 48.3287C75.8621 48.6704 76.3051 48.8731 76.7745 48.8946H79.3808C79.1343 48.8833 78.888 48.9224 78.6569 49.0095C78.4259 49.0966 78.2147 49.2299 78.0363 49.4014C77.8579 49.5728 77.7158 49.7789 77.6188 50.0071C77.5218 50.2353 77.4718 50.4809 77.4718 50.7291C77.4718 50.9773 77.5218 51.223 77.6188 51.4512C77.7158 51.6794 77.8579 51.8855 78.0363 52.0569C78.2147 52.2284 78.4259 52.3617 78.6569 52.4488C78.888 52.5359 79.1343 52.575 79.3808 52.5637H75.7328C75.4862 52.5524 75.24 52.5914 75.0089 52.6785C74.7778 52.7656 74.5667 52.8989 74.3882 53.0704C74.2098 53.2419 74.0678 53.4479 73.9708 53.6761C73.8737 53.9044 73.8237 54.15 73.8237 54.3982C73.8237 54.6464 73.8737 54.892 73.9708 55.1202C74.0678 55.3484 74.2098 55.5545 74.3882 55.726C74.5667 55.8974 74.7778 56.0307 75.0089 56.1178C75.24 56.2049 75.4862 56.244 75.7328 56.2327H96.8444C97.091 56.244 97.3372 56.2049 97.5683 56.1178C97.7994 56.0307 98.0105 55.8974 98.189 55.726C98.3674 55.5545 98.5094 55.3484 98.6064 55.1202C98.7035 54.892 98.7535 54.6464 98.7535 54.3982C98.7535 54.15 98.7035 53.9044 98.6064 53.6761C98.5094 53.4479 98.3674 53.2419 98.189 53.0704C98.0105 52.8989 97.7994 52.7656 97.5683 52.6785C97.3372 52.5914 97.091 52.5524 96.8444 52.5637H100.492C100.739 52.575 100.985 52.5359 101.216 52.4488C101.447 52.3617 101.659 52.2284 101.837 52.0569C102.015 51.8855 102.157 51.6794 102.254 51.4512C102.352 51.223 102.402 50.9773 102.402 50.7291C102.402 50.4809 102.352 50.2353 102.254 50.0071C102.157 49.7789 102.015 49.5728 101.837 49.4014C101.659 49.2299 101.447 49.0966 101.216 49.0095C100.985 48.9224 100.739 48.8833 100.492 48.8946Z" fill="#252223"/>
<path opacity="0.1" d="M193.682 94.9958H191.076C191.323 95.0071 191.569 94.968 191.8 94.8809C192.031 94.7938 192.242 94.6605 192.421 94.4891C192.599 94.3176 192.741 94.1115 192.838 93.8833C192.935 93.6551 192.985 93.4095 192.985 93.1613C192.985 92.9131 192.935 92.6675 192.838 92.4392C192.741 92.211 192.599 92.005 192.421 91.8335C192.242 91.662 192.031 91.5287 191.8 91.4416C191.569 91.3545 191.323 91.3155 191.076 91.3268H169.964C169.495 91.3483 169.052 91.551 168.727 91.8926C168.403 92.2343 168.222 92.6887 168.222 93.1613C168.222 93.6339 168.403 94.0882 168.727 94.4299C169.052 94.7716 169.495 94.9743 169.964 94.9958H172.571C172.324 94.9845 172.078 95.0236 171.847 95.1107C171.616 95.1978 171.405 95.3311 171.226 95.5025C171.048 95.674 170.906 95.8801 170.809 96.1083C170.712 96.3365 170.662 96.5821 170.662 96.8303C170.662 97.0785 170.712 97.3242 170.809 97.5524C170.906 97.7806 171.048 97.9867 171.226 98.1581C171.405 98.3296 171.616 98.4629 171.847 98.55C172.078 98.6371 172.324 98.6762 172.571 98.6649H168.923C168.676 98.6536 168.43 98.6926 168.199 98.7797C167.968 98.8668 167.757 99.0001 167.578 99.1716C167.4 99.3431 167.258 99.5491 167.161 99.7773C167.064 100.006 167.014 100.251 167.014 100.499C167.014 100.748 167.064 100.993 167.161 101.221C167.258 101.45 167.4 101.656 167.578 101.827C167.757 101.999 167.968 102.132 168.199 102.219C168.43 102.306 168.676 102.345 168.923 102.334H190.034C190.281 102.345 190.527 102.306 190.758 102.219C190.989 102.132 191.2 101.999 191.379 101.827C191.557 101.656 191.699 101.45 191.796 101.221C191.893 100.993 191.943 100.748 191.943 100.499C191.943 100.251 191.893 100.006 191.796 99.7773C191.699 99.5491 191.557 99.3431 191.379 99.1716C191.2 99.0001 190.989 98.8668 190.758 98.7797C190.527 98.6926 190.281 98.6536 190.034 98.6649H193.682C193.929 98.6762 194.175 98.6371 194.406 98.55C194.637 98.4629 194.848 98.3296 195.027 98.1581C195.205 97.9867 195.347 97.7806 195.444 97.5524C195.541 97.3242 195.591 97.0785 195.591 96.8303C195.591 96.5821 195.541 96.3365 195.444 96.1083C195.347 95.8801 195.205 95.674 195.027 95.5025C194.848 95.3311 194.637 95.1978 194.406 95.1107C194.175 95.0236 193.929 94.9845 193.682 94.9958Z" fill="#252223"/>
<path d="M207.896 246.634H207.979C207.979 246.634 194.686 209.894 190.962 204.915C190.962 204.915 187.064 202.598 187.242 198.678L182.458 175.33C182.458 175.33 182.53 175.258 182.651 175.124L182.753 175.01L182.871 174.873C183.509 174.111 184.043 173.266 184.458 172.362L184.534 172.187C184.712 171.777 184.861 171.356 184.981 170.926C185.146 170.985 185.321 171.011 185.496 171.002C185.671 170.993 185.842 170.949 186 170.872C186 170.872 186 170.747 186 170.522C186 170.522 185.954 169.139 185.951 166.975C185.951 166.373 185.951 165.717 185.951 165.02C186.098 164.483 186.223 163.919 186.329 163.317L186.136 163.226V163.138L185.973 163.062C186.106 157.937 186.538 151.388 187.784 146.926C187.827 146.769 187.873 146.613 187.921 146.458C189.394 141.585 189.436 135.637 189.815 130.608C190.109 131.24 190.362 131.89 190.572 132.555C190.759 132.344 190.974 132.16 191.212 132.01L192.697 143.962V158.059C192.697 158.059 190.216 176.241 198.001 172.853C205.786 169.466 200.126 156.989 200.126 156.989C200.126 156.989 200.126 150.039 201.191 146.473C201.891 144.126 201.441 136.536 201.047 131.614C201.804 131.747 202.251 131.854 202.251 131.854C202.424 131.14 202.501 130.406 202.482 129.671C202.645 121.453 192.569 108.213 188.466 103.161C187.297 101.357 185.661 99.9082 183.735 98.9696L175.851 95.1291C175.851 95.1291 172.127 94.2147 170.677 91.3191C170.677 91.2696 170.65 91.2201 170.639 91.1705C170.803 91.0969 170.965 91.0169 171.124 90.9305C172.327 90.348 173.382 89.4956 174.207 88.4388C175.885 86.2937 176.688 83.6077 177.454 80.9902C178.355 77.9117 179.264 74.7684 179.143 71.5604C179.022 68.3524 177.681 65.0186 174.976 63.3155C172.665 61.8601 169.442 61.5858 168.006 59.254C167.627 58.6254 167.385 57.8786 166.869 57.3719C166.875 57.2673 166.843 57.1642 166.779 57.0815C166.715 56.9989 166.623 56.9424 166.521 56.9223L162.551 56.1374C162.495 56.1264 162.438 56.1265 162.382 56.1377C162.326 56.1489 162.273 56.1711 162.226 56.203C162.179 56.2348 162.139 56.2757 162.107 56.3233C162.076 56.3709 162.054 56.4243 162.043 56.4803V56.5375C158.493 56.6366 155.009 57.5267 151.842 59.1435C150.717 59.6902 149.637 60.3272 148.614 61.0486C147.156 62.0849 145.72 63.4603 145.512 65.2396C145.409 66.1273 145.621 67.0379 145.443 67.9066C144.962 70.2345 141.86 71.7509 142.314 74.0864C142.621 75.6714 144.405 76.3534 146.076 76.3724C145.611 78.0433 145.493 79.7925 145.728 81.5114C145.964 83.2302 146.548 84.8819 147.446 86.364C148.343 87.8461 149.533 89.1268 150.943 90.1267C152.353 91.1266 153.952 91.8243 155.641 92.1764C156.856 93.8967 157.921 95.7196 158.823 97.6247C156.781 99.5754 152.505 104.102 155.126 105.626L149.671 119.182L150.201 133.153L147.902 135.218L148.406 135.851C145.83 138.868 139.867 145.463 135.507 147.22C134.879 147.473 134.271 147.774 133.689 148.119C132.892 148.627 132.006 148.977 131.078 149.148C130.674 149.192 130.273 149.271 129.881 149.384L128.84 147.212C128.751 147.027 128.627 146.861 128.475 146.725C128.322 146.588 128.145 146.483 127.952 146.415C127.759 146.348 127.555 146.319 127.351 146.331C127.147 146.343 126.947 146.395 126.764 146.484L126.123 146.793L124.608 147.528L123.976 147.837L123.498 148.069C123.128 148.249 122.843 148.57 122.708 148.961C122.572 149.352 122.596 149.78 122.775 150.153L124.036 152.782C122.244 154.371 121.366 156.268 123.809 158.036C124.747 158.727 125.885 159.089 127.048 159.065L127.805 160.661C127.894 160.846 128.018 161.012 128.171 161.149C128.323 161.285 128.501 161.391 128.693 161.458C128.886 161.526 129.09 161.555 129.294 161.543C129.498 161.531 129.698 161.479 129.881 161.389L130.991 160.848L133.143 159.804C133.327 159.715 133.492 159.59 133.628 159.437C133.764 159.284 133.868 159.105 133.935 158.911C134.002 158.717 134.031 158.512 134.019 158.307C134.007 158.102 133.956 157.901 133.867 157.716L133.238 156.402C134.646 155.302 135.936 154.057 137.087 152.687C137.087 152.687 140.322 150.649 142.227 150.191C143.489 149.891 147.909 146.968 150.652 145.117L151.433 165.691C151.26 165.958 151.06 166.206 150.834 166.43L151.444 165.995V166.148C151.362 166.247 151.275 166.341 151.182 166.43L151.448 166.239V166.487C151.361 166.591 151.269 166.691 151.171 166.784L151.451 166.586L151.565 168.746L152.899 166.521L152.982 168.746L153.293 168.228C149.55 174.625 144.674 184.043 142.068 193.519C142.068 193.519 137.992 200.648 138.522 207.955L131.078 244.15L131.222 244.204C128.798 245.964 123.688 249.191 118.676 249.32C118.676 249.32 106.626 248.962 109.993 251.637C113.361 254.312 143.311 258.232 143.311 258.232L144.447 249.221L144.712 249.32C144.712 249.32 144.712 249.271 144.712 249.18L145.091 249.32C145.091 249.32 144.368 244.84 147.019 242.344C149.671 239.849 155.88 214.531 155.353 210.618C155.353 210.618 160.111 198.659 166.066 189.122L173.067 207.227L180.863 220.772C180.863 220.772 191.235 243.967 190.902 249.134C188.724 251.801 184.841 255.992 181.928 255.881C181.928 255.881 170.055 258.198 178.208 260.339C186.36 262.48 210.282 254.472 210.282 254.472L207.896 246.634ZM155.997 163.706L156.069 163.664C155.69 164.239 155.312 164.875 154.88 165.569L155.997 163.706Z" fill="url(#paint0_linear)"/>
<path d="M150.834 166.437C150.542 166.651 150.383 166.769 150.383 166.769C150.549 166.681 150.701 166.569 150.834 166.437Z" fill="url(#paint1_linear)"/>
<path d="M151.186 166.796C150.895 167.009 150.735 167.127 150.735 167.127C150.901 167.039 151.053 166.928 151.186 166.796Z" fill="url(#paint2_linear)"/>
<path d="M151.186 166.437C150.895 166.651 150.735 166.769 150.735 166.769C150.901 166.681 151.053 166.569 151.186 166.437Z" fill="url(#paint3_linear)"/>
<path d="M191.739 244.756C191.739 244.756 185.519 253.618 181.371 253.443C181.371 253.443 169.794 255.702 177.742 257.786C185.689 259.87 209.013 252.052 209.013 252.052L206.24 242.965L191.739 244.756Z" fill="#333333"/>
<path d="M163.922 183.224L172.734 205.989L180.355 219.214C180.355 219.214 190.807 242.584 190.118 247.103L206.786 244.409C206.786 244.409 193.826 208.595 190.201 203.749C190.201 203.749 186.413 201.49 186.572 197.653L181.909 174.888C181.909 174.888 186.454 170.484 183.909 164.982C183.78 164.7 183.631 164.416 183.462 164.129C179.977 158.219 166.862 161.507 166.862 161.507L163.922 183.224Z" fill="#535461"/>
<path opacity="0.03" d="M163.922 183.224L172.734 205.989L180.355 219.214C180.355 219.214 190.807 242.584 190.118 247.103L206.786 244.409C206.786 244.409 193.826 208.595 190.201 203.749C190.201 203.749 186.413 201.49 186.572 197.653L181.909 174.888C181.909 174.888 186.454 170.484 183.909 164.982C183.78 164.7 183.631 164.416 183.462 164.129C179.977 158.219 166.862 161.507 166.862 161.507L163.922 183.224Z" fill="black"/>
<g opacity="0.1">
<path opacity="0.1" d="M190.186 203.749C190.186 203.749 186.398 201.49 186.557 197.653L181.893 174.888C181.893 174.888 186.439 170.484 183.894 164.982C183.765 164.7 183.616 164.416 183.447 164.129C181.772 161.263 177.817 160.562 174.192 160.604C177.67 160.635 181.329 161.401 182.928 164.129C183.097 164.416 183.246 164.7 183.375 164.982C185.909 170.499 181.374 174.888 181.374 174.888L186.038 197.664C185.863 201.474 189.667 203.76 189.667 203.76C193.296 208.626 206.252 244.421 206.252 244.421L190.106 247.031C190.106 247.057 190.106 247.088 190.106 247.114L206.774 244.421C206.774 244.421 193.815 208.614 190.186 203.749Z" fill="black"/>
</g>
<path d="M133.344 240.935C133.344 240.935 126.434 246.844 119.706 247.031C119.706 247.031 107.963 246.684 111.24 249.29C114.516 251.896 143.72 255.721 143.72 255.721L145.019 245.552L133.344 240.935Z" fill="#333333"/>
<g opacity="0.1">
<path opacity="0.1" d="M158.74 160.132C158.74 160.132 147.337 176.294 142.829 192.627C142.829 192.627 138.856 199.577 139.375 206.702L132.132 241.979L145.436 247.019C145.436 247.019 144.746 242.676 147.33 240.241C149.913 237.807 155.967 213.133 155.452 209.312C155.452 209.312 163.744 188.459 172.037 180.291C180.329 172.122 184.458 170.24 185.674 163.187C185.682 163.187 166.169 153.701 158.74 160.132Z" fill="black"/>
</g>
<path d="M158.384 160.132C158.384 160.132 146.981 176.294 142.473 192.627C142.473 192.627 138.5 199.577 139.019 206.702L131.76 241.979L145.065 247.019C145.065 247.019 144.375 242.676 146.959 240.241C149.542 237.807 155.596 213.133 155.081 209.312C155.081 209.312 163.373 188.459 171.665 180.291C179.958 172.122 184.087 170.24 185.303 163.187C185.337 163.187 165.824 153.701 158.384 160.132Z" fill="#535461"/>
<g opacity="0.1">
<path opacity="0.1" d="M165.759 157.724C174.325 157.827 184.992 163.012 184.992 163.012C183.772 170.065 179.647 171.947 171.355 180.115C163.062 188.284 154.766 209.132 154.766 209.132C155.285 212.942 149.239 237.631 146.644 240.062C144.371 242.181 144.621 245.743 144.716 246.634L145.261 246.84C145.261 246.84 144.572 242.497 147.156 240.062C149.739 237.628 155.804 212.942 155.285 209.132C155.285 209.132 163.577 188.28 171.87 180.112C180.162 171.943 184.291 170.061 185.507 163.008C185.511 163.031 174.404 157.617 165.759 157.724Z" fill="black"/>
</g>
<path d="M149.929 134.936C149.929 134.936 141.682 145.265 136.117 147.509C135.505 147.756 134.912 148.049 134.344 148.386C133.567 148.881 132.703 149.221 131.798 149.388C131.132 149.453 130.481 149.625 129.87 149.898C126.976 151.239 120.301 154.851 124.707 158.052C130.234 162.048 137.666 152.839 137.666 152.839C137.666 152.839 140.822 150.851 142.678 150.405C144.534 149.959 153.039 143.981 153.039 143.981L149.929 134.936Z" fill="#FDA57D"/>
<path d="M151.482 132.848L148.201 135.805L153.039 141.886L151.482 132.848Z" fill="#4D8AF0"/>
<g opacity="0.1">
<path opacity="0.1" d="M151.482 132.848L148.201 135.805L153.039 141.886L151.482 132.848Z" fill="black"/>
</g>
<path d="M159.801 98.261C159.801 98.261 151.936 105.039 155.228 106.948L149.925 120.153L151.755 168.461L159.251 155.948L154.13 128.84C154.13 128.84 152.667 112.678 156.872 108.857L160.895 100.856L159.801 98.261Z" fill="#6C63FF"/>
<g opacity="0.1">
<path opacity="0.1" d="M161.183 98.261C161.183 98.261 153.319 105.039 156.611 106.948L151.307 120.153L153.137 168.461L160.634 155.948L155.512 128.84C155.512 128.84 154.05 112.678 158.255 108.857L162.278 100.856L161.183 98.261Z" fill="black"/>
</g>
<path d="M153.728 91.1439C153.728 91.1439 160.123 98.962 159.948 103.481C159.774 107.999 172.044 95.6625 172.044 95.6625C172.044 95.6625 167.381 89.9285 168.589 83.8515C169.798 77.7745 153.728 91.1439 153.728 91.1439Z" fill="#FDA57D"/>
<path d="M190.186 130.418L191.913 144.32V158.036C191.913 158.036 189.493 175.761 197.096 172.461C204.699 169.162 199.168 156.996 199.168 156.996C199.168 156.996 199.168 150.218 200.206 146.743C201.244 143.269 199.675 127.979 199.675 127.979L190.186 130.418Z" fill="#FDA57D"/>
<path d="M166.513 97.5752C166.513 97.5752 161.85 102.094 159.429 100.528L156.111 108.822C154.083 113.893 153.163 119.342 153.414 124.802L154.596 156.135L159.778 155.442L161.505 125.724L164.096 107.653L166.513 97.5752Z" fill="#F2F2F2"/>
<g opacity="0.1">
<path opacity="0.1" d="M170.404 92.7974C170.404 92.7974 164.267 97.0532 162.551 100.703C162.551 100.703 162.377 104.7 160.998 106.437C159.619 108.175 158.232 116.865 157.888 127.289C157.543 137.714 155.993 151.616 155.993 151.616C155.993 151.616 153.402 165.169 150.637 166.559C150.637 166.559 163.422 156.829 169.642 160.128C175.863 163.427 182.947 171.425 185.019 170.205C185.019 170.205 184.519 154.965 186.788 146.854C186.831 146.699 186.875 146.548 186.92 146.401C189.341 138.4 187.784 127.461 190.55 122.778C190.55 122.778 190.55 114.286 188.955 107.942C188.542 106.323 187.783 104.813 186.729 103.52C185.676 102.227 184.354 101.181 182.856 100.456L175.173 96.7141C175.173 96.7141 171.093 96.0969 170.404 92.7974Z" fill="black"/>
</g>
<g opacity="0.1">
<path opacity="0.1" d="M170.404 92.7974C170.404 92.7974 164.615 97.4037 162.888 101.05C162.888 101.05 162.714 105.047 161.335 106.784C159.956 108.521 158.569 117.212 158.225 127.636C157.88 138.06 156.331 151.963 156.331 151.963C156.331 151.963 153.739 165.515 150.974 166.906C150.974 166.906 163.759 157.175 169.98 160.475C176.2 163.774 183.284 171.771 185.356 170.552C185.356 170.552 184.856 155.312 187.125 147.201C187.168 147.046 187.212 146.895 187.258 146.747C189.678 138.746 188.121 127.808 190.887 123.125C190.887 123.125 190.887 114.633 189.292 108.289C188.88 106.669 188.12 105.16 187.066 103.867C186.013 102.573 184.691 101.527 183.193 100.802L175.51 97.0608C175.51 97.0608 171.093 96.0969 170.404 92.7974Z" fill="black"/>
</g>
<path d="M170.317 92.7098C170.317 92.7098 164.615 97.0532 162.888 100.711C162.888 100.711 162.714 104.708 161.335 106.445C159.956 108.182 158.569 116.873 158.225 127.297C157.88 137.721 156.331 151.624 156.331 151.624C156.331 151.624 153.739 165.176 150.974 166.567C150.974 166.567 163.759 156.836 169.98 160.136C176.2 163.435 183.272 171.413 185.348 170.209C185.348 170.209 184.848 154.969 187.117 146.858C187.16 146.703 187.205 146.552 187.25 146.404C189.671 138.403 188.114 127.465 190.879 122.782C190.879 122.782 190.879 114.29 189.284 107.946C188.872 106.326 188.112 104.817 187.059 103.524C186.005 102.23 184.683 101.184 183.185 100.459L175.503 96.7179C175.503 96.7179 171.612 95.7502 170.317 92.7098Z" fill="#6C63FF"/>
<g opacity="0.1">
<path opacity="0.1" d="M186.125 102.875C186.125 102.875 203.661 122.946 201.244 132.502C201.244 132.502 192.258 130.418 189.841 133.195C189.841 133.195 187.947 126.764 182.238 123.118C176.529 119.471 171.264 96.0969 186.125 102.875Z" fill="black"/>
</g>
<path d="M186.125 102.528C186.125 102.528 203.661 122.599 201.244 132.155C201.244 132.155 192.258 130.071 189.841 132.848C189.841 132.848 187.947 126.417 182.238 122.771C176.529 119.125 171.264 95.7502 186.125 102.528Z" fill="#6C63FF"/>
<g opacity="0.1">
<path opacity="0.1" d="M169.021 87.7568C168.748 86.3547 168.976 86.2328 169.279 84.7088C170.487 78.6127 154.421 92.0088 154.421 92.0088C154.421 92.0088 155.315 93.1022 156.425 94.7101C157.244 94.8799 158.078 94.9654 158.914 94.9653C163.309 94.9691 166.851 91.2391 169.021 87.7568Z" fill="black"/>
</g>
<path d="M158.221 94.0966C164.995 94.0966 170.487 88.5733 170.487 81.7598C170.487 74.9464 164.995 69.423 158.221 69.423C151.447 69.423 145.955 74.9464 145.955 81.7598C145.955 88.5733 151.447 94.0966 158.221 94.0966Z" fill="#FDA57D"/>
<g opacity="0.1">
<path opacity="0.1" d="M147.201 78.3841C145.394 78.628 143.091 78.0031 142.742 76.2239C142.303 73.9379 145.326 72.471 145.796 70.2002C145.97 69.3468 145.762 68.4591 145.864 67.598C146.068 65.8568 147.466 64.5195 148.894 63.506C153.401 60.3267 158.883 58.8579 164.365 59.3607C165.05 59.3695 165.717 59.5816 166.282 59.9703C166.877 60.4618 167.108 61.2619 167.513 61.9211C168.915 64.2071 172.059 64.4623 174.309 65.8797C176.961 67.537 178.253 70.7908 178.37 73.915C178.488 77.0392 177.613 80.1063 176.723 83.1086C175.965 85.6613 175.207 88.2826 173.556 90.3704C171.904 92.4583 169.203 93.9214 166.631 93.2927C167.809 92.4393 166.953 90.4581 165.676 89.7608C164.4 89.0636 162.816 88.9455 161.725 87.9854C160.634 87.0252 160.308 85.4555 159.952 84.0268C159.505 82.2246 158.854 80.3958 157.547 79.0738C154.974 76.502 150.349 77.9574 147.201 78.3841Z" fill="black"/>
</g>
<path d="M147.546 78.2127C145.739 78.4565 143.436 77.8317 143.087 76.0524C142.648 73.7664 145.671 72.2995 146.14 70.0288C146.315 69.1753 146.106 68.2876 146.209 67.4265C146.413 65.6854 147.811 64.348 149.239 63.3346C153.746 60.1553 159.228 58.6865 164.71 59.1893C165.395 59.198 166.062 59.4101 166.627 59.7989C167.222 60.2904 167.453 61.0905 167.858 61.7496C169.26 64.0356 172.404 64.2909 174.654 65.7082C177.306 67.3656 178.598 70.6193 178.715 73.7435C178.833 76.8678 177.958 79.9348 177.067 82.9371C176.31 85.4898 175.552 88.1111 173.9 90.199C172.249 92.2869 169.548 93.7499 166.976 93.1213C168.154 92.2678 167.298 90.2866 166.021 89.5894C164.744 88.8922 163.161 88.774 162.07 87.8139C160.979 86.8538 160.657 85.2841 160.278 83.8553C159.831 82.0532 159.179 80.2244 157.872 78.9023C155.323 76.3267 150.694 77.786 147.546 78.2127Z" fill="#72351C"/>
<path d="M165.627 65.693L166.737 59.978C166.748 59.9231 166.748 59.8667 166.737 59.8118C166.726 59.757 166.705 59.7049 166.674 59.6584C166.643 59.612 166.603 59.5722 166.556 59.5414C166.51 59.5106 166.458 59.4893 166.403 59.4788L162.483 58.7168C162.428 58.7058 162.372 58.7057 162.318 58.7166C162.263 58.7275 162.211 58.7491 162.165 58.7803C162.119 58.8115 162.079 58.8516 162.049 58.8982C162.018 58.9449 161.997 58.9972 161.986 59.0521L160.877 64.7671L157.088 78.8947L164.04 80.2587L165.627 65.693Z" fill="#CBDAE3"/>
<g opacity="0.1">
<path opacity="0.1" d="M159.861 88.1035C163.2 88.1035 165.907 85.381 165.907 82.0227C165.907 78.6644 163.2 75.9419 159.861 75.9419C156.522 75.9419 153.815 78.6644 153.815 82.0227C153.815 85.381 156.522 88.1035 159.861 88.1035Z" fill="black"/>
</g>
<path d="M159.861 88.2749C163.2 88.2749 165.907 85.5525 165.907 82.1942C165.907 78.8358 163.2 76.1134 159.861 76.1134C156.522 76.1134 153.815 78.8358 153.815 82.1942C153.815 85.5525 156.522 88.2749 159.861 88.2749Z" fill="#CBDAE3"/>
<path d="M159.861 86.1794C162.05 86.1794 163.824 84.3952 163.824 82.1942C163.824 79.9932 162.05 78.2089 159.861 78.2089C157.673 78.2089 155.899 79.9932 155.899 82.1942C155.899 84.3952 157.673 86.1794 159.861 86.1794Z" fill="#E9E9E9"/>
<path d="M159.861 83.4095C160.529 83.4095 161.07 82.8654 161.07 82.1942C161.07 81.5229 160.529 80.9788 159.861 80.9788C159.194 80.9788 158.653 81.5229 158.653 82.1942C158.653 82.8654 159.194 83.4095 159.861 83.4095Z" fill="#F48681"/>
<path opacity="0.05" d="M165.728 65.1744L160.98 64.2418L160.946 64.4139L165.694 65.3464L165.728 65.1744Z" fill="black"/>
<path d="M125.681 147.722L125.678 147.724C124.217 148.432 123.604 150.197 124.308 151.666L127.987 159.34C128.691 160.809 130.446 161.426 131.906 160.717L131.91 160.716C133.37 160.007 133.984 158.243 133.279 156.774L129.601 149.1C128.897 147.631 127.142 147.014 125.681 147.722Z" fill="#CBDAE3"/>
<g opacity="0.1">
<path opacity="0.1" d="M125.681 147.722L125.678 147.724C124.217 148.432 123.604 150.197 124.308 151.666L127.987 159.34C128.691 160.809 130.446 161.426 131.906 160.717L131.91 160.716C133.37 160.007 133.984 158.243 133.279 156.774L129.601 149.1C128.897 147.631 127.142 147.014 125.681 147.722Z" fill="black"/>
</g>
<path d="M130.26 148.877C129.535 147.365 127.728 146.73 126.225 147.459C124.721 148.188 124.089 150.005 124.814 151.518L128.417 159.034C129.142 160.546 130.949 161.181 132.453 160.452C133.957 159.723 134.588 157.906 133.863 156.393L130.26 148.877Z" fill="#CBDAE3"/>
<path d="M128.728 147.401L124.613 149.397L129.34 159.257L133.455 157.261L128.728 147.401Z" fill="#F2F2F2"/>
<path d="M132.302 159.943C132.56 159.818 132.636 159.437 132.47 159.092C132.305 158.747 131.961 158.569 131.703 158.694C131.445 158.819 131.37 159.2 131.535 159.545C131.701 159.89 132.044 160.068 132.302 159.943Z" fill="#F2F2F2"/>
</g>
<defs>
<linearGradient id="paint0_linear" x1="109.383" y1="158.421" x2="210.282" y2="158.421" gradientUnits="userSpaceOnUse">
<stop stop-color="#808080" stop-opacity="0.25"/>
<stop offset="0.54" stop-color="#808080" stop-opacity="0.12"/>
<stop offset="1" stop-color="#808080" stop-opacity="0.1"/>
</linearGradient>
<linearGradient id="paint1_linear" x1="384.297" y1="321.027" x2="384.834" y2="321.027" gradientUnits="userSpaceOnUse">
<stop stop-color="#808080" stop-opacity="0.25"/>
<stop offset="0.54" stop-color="#808080" stop-opacity="0.12"/>
<stop offset="1" stop-color="#808080" stop-opacity="0.1"/>
</linearGradient>
<linearGradient id="paint2_linear" x1="385.073" y1="321.693" x2="385.614" y2="321.693" gradientUnits="userSpaceOnUse">
<stop stop-color="#808080" stop-opacity="0.25"/>
<stop offset="0.54" stop-color="#808080" stop-opacity="0.12"/>
<stop offset="1" stop-color="#808080" stop-opacity="0.1"/>
</linearGradient>
<linearGradient id="paint3_linear" x1="385.073" y1="321.027" x2="385.614" y2="321.027" gradientUnits="userSpaceOnUse">
<stop stop-color="#808080" stop-opacity="0.25"/>
<stop offset="0.54" stop-color="#808080" stop-opacity="0.12"/>
<stop offset="1" stop-color="#808080" stop-opacity="0.1"/>
</linearGradient>
<clipPath id="clip0">
<rect width="321" height="290" fill="white"/>
</clipPath>
</defs>
</svg>
